<?xml version="1.0" encoding="utf-8" standalone="no"?>
<!DOCTYPE svg PUBLIC "-//W3C//DTD SVG 1.1//EN"
  "http://www.w3.org/Graphics/SVG/1.1/DTD/svg11.dtd">
<svg xmlns:xlink="http://www.w3.org/1999/xlink" width="276.48pt" height="149.608421pt" viewBox="0 0 276.48 149.608421" xmlns="http://www.w3.org/2000/svg" version="1.1">
<style>
  svg { --ink: #111827; --muted: #475569; --tagtext: #ffffff; }
  @media (prefers-color-scheme: dark) { svg { --ink: #f3f4f6; --muted: #aab2bd; --tagtext: #111827; } }
</style>

 <metadata>
  <rdf:RDF xmlns:dc="http://purl.org/dc/elements/1.1/" xmlns:cc="http://creativecommons.org/ns#" xmlns:rdf="http://www.w3.org/1999/02/22-rdf-syntax-ns#">
   <cc:Work>
    <dc:type rdf:resource="http://purl.org/dc/dcmitype/StillImage"/>
    <dc:date>2026-09-22T14:14:46.145910</dc:date>
    <dc:format>image/svg+xml</dc:format>
    <dc:creator>
     <cc:Agent>
      <dc:title>Matplotlib v3.11.1, https://matplotlib.org/</dc:title>
     </cc:Agent>
    </dc:creator>
   </cc:Work>
  </rdf:RDF>
 </metadata>
 <defs>
  <style type="text/css">*{stroke-linejoin: round; stroke-linecap: butt}</style>
 </defs>
 <g id="figure_1">
  <g id="patch_1">
   <path d="M 0 149.608421 
L 276.48 149.608421 
L 276.48 0 
L 0 0 
L 0 149.608421 
z
" style="fill: none"/>
  </g>
  <g id="axes_1">
   <g id="patch_2">
    <path d="M 146.347976 79.503158 
L 146.025653 78.401323 
L 145.651392 77.314253 
L 145.228654 76.244066 
L 144.761137 75.192601 
L 144.252731 74.161404 
L 143.707466 73.151716 
L 143.129471 72.164465 
L 142.522916 71.200264 
L 141.891972 70.259416 
L 141.240758 69.341919 
L 140.573295 68.447479 
L 139.893465 67.57553 
L 139.204969 66.725245 
L 138.511284 65.895571 
L 137.815637 65.085247 
L 137.120967 64.292841 
L 136.429907 63.516777 
L 135.744755 62.755371 
L 135.067467 62.006863 
L 134.399638 61.269458 
L 133.742503 60.541356 
L 133.096935 59.820787 
L 132.463445 59.106048 
L 131.8422 58.395533 
L 131.233031 57.687759 
L 130.635454 56.981399 
L 130.048692 56.275302 
L 129.471701 55.568512 
L 128.9032 54.86029 
L 128.341702 54.15012 
L 127.785546 53.437723 
L 127.232935 52.723057 
L 126.681971 52.006319 
L 126.13069 51.287942 
L 125.577097 50.568582 
L 125.019205 49.849109 
L 124.455065 49.130592 
L 123.882796 48.414275 
L 123.300621 47.701558 
L 122.706884 46.993972 
L 122.100084 46.293148 
L 121.478884 45.600793 
L 120.842135 44.918655 
L 120.188885 44.248497 
L 119.518386 43.592061 
L 118.830103 42.951044 
L 118.123707 42.327061 
L 117.399078 41.721624 
L 116.656295 41.136113 
L 115.895623 40.571751 
L 115.117504 40.029589 
L 114.322534 39.510483 
L 113.511449 39.015083 
L 112.685099 38.543825 
L 111.84443 38.09692 
L 110.990454 37.674358 
L 110.12423 37.275906 
L 109.246835 36.901119 
L 108.35934 36.549344 
L 107.462791 36.219743 
L 106.558178 35.911302 
L 105.646424 35.62286 
L 104.728359 35.353129 
L 103.80471 35.100724 
L 102.876085 34.864187 
L 101.942963 34.642025 
L 101.00569 34.432736 
L 100.064474 34.234844 
L 99.119385 34.046933 
L 98.170362 33.867675 
L 97.217219 33.695864 
L 96.259655 33.530444 
L 95.297269 33.370539 
L 94.329577 33.215471 
L 93.356034 33.064789 
L 92.37605 32.918283 
L 91.389022 32.775997 
L 90.394352 32.638241 
L 89.391477 32.505599 
L 88.379895 32.378925 
L 87.359191 32.259341 
L 86.329065 32.148233 
L 85.289353 32.047235 
L 84.240056 31.95821 
L 83.181357 31.883235 
L 82.113639 31.82457 
L 81.037506 31.784634 
L 79.953791 31.765971 
L 78.863567 31.771215 
L 77.768153 31.803056 
L 76.66911 31.864198 
L 75.568244 31.957325 
L 74.467596 32.085055 
L 73.369428 32.249905 
L 72.276211 32.454251 
L 71.1906 32.700287 
L 70.115416 32.989996 
L 69.053611 33.32511 
L 68.008245 33.707082 
L 66.982446 34.137062 
L 65.979377 34.61587 
L 65.002198 35.143979 
L 64.054025 35.721503 
L 63.137894 36.348186 
L 62.256715 37.023395 
L 61.413238 37.746129 
L 60.610008 38.515015 
L 59.849335 39.32833 
L 59.133254 40.184008 
L 58.463497 41.079667 
L 57.841459 42.012631 
L 57.268178 42.979964 
L 56.744313 43.978497 
L 56.270127 45.004869 
L 55.845476 46.055568 
L 55.469805 47.126968 
L 55.142145 48.215372 
L 54.861119 49.317061 
L 54.624953 50.428335 
L 54.431492 51.545555 
L 54.278217 52.665191 
L 54.162278 53.78386 
L 54.080519 54.898366 
L 54.029513 56.005735 
L 54.005606 57.103253 
L 54.004955 58.188491 
L 54.023574 59.25933 
L 54.057382 60.313988 
L 54.102254 61.351027 
L 54.154067 62.369371 
L 54.208754 63.36831 
L 54.262354 64.347498 
L 54.311059 65.306953 
L 54.351261 66.247041 
L 54.379602 67.168469 
L 54.39301 68.072258 
L 54.388738 68.959726 
L 54.364404 69.832452 
L 54.318013 70.692253 
L 54.247988 71.541146 
L 54.153187 72.381307 
L 54.032915 73.215037 
L 53.886936 74.044723 
L 53.715472 74.872788 
L 53.519201 75.70166 
L 53.299249 76.533722 
L 53.057171 77.371279 
L 52.794935 78.216515 
L 52.514893 79.071461 
L 52.219753 79.937956 
L 51.912541 80.817624 
L 51.596566 81.71184 
L 51.275379 82.621716 
L 50.952723 83.548076 
L 50.632491 84.491444 
L 50.318677 85.452039 
L 50.015328 86.429765 
L 49.726491 87.424219 
L 49.456173 88.434688 
L 49.208284 89.460169 
L 48.9866 90.499373 
L 48.794717 91.550755 
L 48.636011 92.612525 
L 48.513604 93.682685 
L 48.430328 94.759048 
L 48.388702 95.839278 
L 48.390906 96.920917 
L 48.438765 98.001422 
L 48.533732 99.078201 
L 48.676884 100.148647 
L 48.868918 101.210177 
L 49.110153 102.26026 
L 49.400539 103.296458 
L 49.739667 104.316451 
L 50.126785 105.318067 
L 50.560824 106.299309 
L 51.040415 107.258377 
L 51.563925 108.193687 
L 52.129481 109.103884 
L 52.735006 109.987855 
L 53.378252 110.844734 
L 54.056838 111.673906 
L 54.768286 112.475005 
L 55.510055 113.247905 
L 56.279578 113.992713 
L 57.074296 114.709753 
L 57.891694 115.399552 
L 58.729327 116.062812 
L 59.584851 116.700393 
L 60.456047 117.313285 
L 61.340844 117.90258 
L 62.237336 118.469439 
L 63.143798 119.01507 
L 64.058693 119.540689 
L 64.980683 120.047493 
L 65.90863 120.536632 
L 66.841593 121.009178 
L 67.778824 121.466098 
L 68.719758 121.908234 
L 69.664005 122.336276 
L 70.611327 122.750744 
L 71.561628 123.151976 
L 72.51493 123.540116 
L 73.471351 123.915101 
L 74.431083 124.276665 
L 75.394367 124.624334 
L 76.361467 124.957433 
L 77.33265 125.275093 
L 78.308158 125.576266 
L 79.288187 125.859741 
L 80.272865 126.12416 
L 81.262235 126.368049 
L 82.256237 126.589835 
L 83.254694 126.787881 
L 84.257301 126.960512 
L 85.263616 127.106049 
L 86.273059 127.222839 
L 87.28491 127.309292 
L 88.298308 127.363906 
L 89.312264 127.385308 
L 90.325663 127.372275 
L 91.337284 127.323769 
L 92.345811 127.238961 
L 93.349857 127.117251 
L 94.347979 126.958293 
L 95.338704 126.762007 
L 96.320558 126.528592 
L 97.292086 126.258536 
L 98.251882 125.952616 
L 99.198615 125.611901 
L 100.131059 125.237741 
L 101.048113 124.831762 
L 101.948832 124.395847 
L 102.832445 123.932121 
L 103.698378 123.442922 
L 104.546271 122.930781 
L 105.375994 122.398388 
L 106.187655 121.848557 
L 106.98161 121.284196 
L 107.758468 120.708264 
L 108.519085 120.123733 
L 109.264563 119.533553 
L 109.996241 118.940604 
L 110.715679 118.347665 
L 111.424641 117.757369 
L 112.125073 117.172167 
L 112.81908 116.594298 
L 113.508893 116.025751 
L 114.19684 115.468241 
L 114.88531 114.923179 
L 115.576718 114.391657 
L 116.273464 113.874426 
L 116.977896 113.371888 
L 117.692269 112.884086 
L 118.418705 112.410707 
L 119.159155 111.95108 
L 119.915361 111.504187 
L 120.68882 111.068678 
L 121.480751 110.642888 
L 122.292065 110.224858 
L 123.123339 109.812368 
L 123.974793 109.402962 
L 124.846269 108.993986 
L 125.737225 108.582626 
L 126.646718 108.165946 
L 127.573409 107.740935 
L 128.515559 107.304543 
L 129.471041 106.853732 
L 130.437351 106.385513 
L 131.411629 105.896997 
L 132.39068 105.385432 
L 133.371005 104.848243 
L 134.348831 104.283071 
L 135.320153 103.68781 
L 136.280771 103.060634 
L 137.226334 102.400024 
L 138.152391 101.704797 
L 139.054435 100.974116 
L 139.927954 100.207509 
L 140.768485 99.404873 
L 141.571658 98.566482 
L 142.333253 97.692979 
L 143.049242 96.785371 
L 143.715841 95.845018 
L 144.32955 94.873611 
L 144.887195 93.873156 
L 145.385961 92.845942 
L 145.823432 91.794513 
L 146.197609 90.721638 
L 146.506941 89.630268 
L 146.750333 88.523503 
L 146.927165 87.404548 
L 147.037294 86.276676 
L 147.081052 85.143181 
L 147.059241 84.00734 
L 146.973122 82.87237 
L 146.824394 81.74139 
L 146.615177 80.617383 
L 146.347976 79.503158 
z
" clip-path="url(#p84afeb68bb)" style="fill: #56b4e9; fill-opacity: 0.18; stroke: #56b4e9; stroke-opacity: 0.18; stroke-linejoin: miter"/>
   </g>
   <g id="line2d_1">
    <path d="M 146.347976 79.503158 
L 145.651392 77.314253 
L 144.761137 75.192601 
L 143.707466 73.151716 
L 141.891972 70.259416 
L 139.893465 67.57553 
L 137.120967 64.292841 
L 129.471701 55.568512 
L 125.019205 49.849109 
L 122.100084 46.293148 
L 120.188885 44.248497 
L 118.123707 42.327061 
L 115.895623 40.571751 
L 113.511449 39.015083 
L 110.990454 37.674358 
L 108.35934 36.549344 
L 105.646424 35.62286 
L 101.942963 34.642025 
L 97.217219 33.695864 
L 91.389022 32.775997 
L 86.329065 32.148233 
L 82.113639 31.82457 
L 78.863567 31.771215 
L 75.568244 31.957325 
L 73.369428 32.249905 
L 71.1906 32.700287 
L 69.053611 33.32511 
L 66.982446 34.137062 
L 65.002198 35.143979 
L 63.137894 36.348186 
L 61.413238 37.746129 
L 59.849335 39.32833 
L 58.463497 41.079667 
L 57.268178 42.979964 
L 56.270127 45.004869 
L 55.469805 47.126968 
L 54.861119 49.317061 
L 54.431492 51.545555 
L 54.080519 54.898366 
L 54.004955 58.188491 
L 54.154067 62.369371 
L 54.39301 68.072258 
L 54.318013 70.692253 
L 54.032915 73.215037 
L 53.519201 75.70166 
L 52.514893 79.071461 
L 49.726491 87.424219 
L 48.9866 90.499373 
L 48.513604 93.682685 
L 48.388702 95.839278 
L 48.438765 98.001422 
L 48.676884 100.148647 
L 49.110153 102.26026 
L 49.739667 104.316451 
L 50.560824 106.299309 
L 51.563925 108.193687 
L 52.735006 109.987855 
L 54.056838 111.673906 
L 55.510055 113.247905 
L 57.891694 115.399552 
L 60.456047 117.313285 
L 63.143798 119.01507 
L 65.90863 120.536632 
L 69.664005 122.336276 
L 73.471351 123.915101 
L 77.33265 125.275093 
L 80.272865 126.12416 
L 83.254694 126.787881 
L 86.273059 127.222839 
L 89.312264 127.385308 
L 92.345811 127.238961 
L 94.347979 126.958293 
L 96.320558 126.528592 
L 98.251882 125.952616 
L 101.048113 124.831762 
L 103.698378 123.442922 
L 106.187655 121.848557 
L 109.264563 119.533553 
L 116.977896 113.371888 
L 119.159155 111.95108 
L 122.292065 110.224858 
L 126.646718 108.165946 
L 131.411629 105.896997 
L 134.348831 104.283071 
L 137.226334 102.400024 
L 139.054435 100.974116 
L 140.768485 99.404873 
L 142.333253 97.692979 
L 143.715841 95.845018 
L 144.887195 93.873156 
L 145.823432 91.794513 
L 146.506941 89.630268 
L 146.927165 87.404548 
L 147.081052 85.143181 
L 146.973122 82.87237 
L 146.615177 80.617383 
L 146.347976 79.503158 
L 146.347976 79.503158 
" clip-path="url(#p84afeb68bb)" style="fill: none; stroke: #56b4e9; stroke-width: 1.6; stroke-linecap: square"/>
   </g>
   <g id="line2d_2">
    <path d="M 119.444211 70.105263 
L 248.665263 56.008421 
" clip-path="url(#p84afeb68bb)" style="fill: none; stroke-dasharray: 5.18,2.24; stroke-dashoffset: 0; stroke: #cc79a7; stroke-width: 1.4"/>
   </g>
   <g id="line2d_3">
    <path d="M 65.406316 95.949474 
L 248.665263 56.008421 
" clip-path="url(#p84afeb68bb)" style="fill: none; stroke-dasharray: 5.18,2.24; stroke-dashoffset: 0; stroke: #cc79a7; stroke-width: 1.4"/>
   </g>
   <g id="text_1">
    <!-- field point -->
    <g style="fill: var(--ink)" transform="translate(226.048544 44.249821) scale(0.09 -0.09)">
     <defs>
      <path id="DejaVuSans-13af" d="M 3431 3500 
L 3431 0 
L 2853 0 
L 2853 3053 
L 1275 3053 
L 1275 0 
L 697 0 
L 697 3053 
L 147 3053 
L 147 3500 
L 697 3500 
L 697 3744 
Q 697 4316 967 4589 
Q 1238 4863 1797 4863 
L 2375 4863 
L 2375 4384 
L 1825 4384 
Q 1516 4384 1395 4259 
Q 1275 4134 1275 3809 
L 1275 3500 
L 3431 3500 
z
M 2853 4856 
L 3431 4856 
L 3431 4128 
L 2853 4128 
L 2853 4856 
z
" transform="scale(0.015625)"/>
      <path id="DejaVuSans-48" d="M 3597 1894 
L 3597 1613 
L 953 1613 
Q 991 1019 1311 708 
Q 1631 397 2203 397 
Q 2534 397 2845 478 
Q 3156 559 3463 722 
L 3463 178 
Q 3153 47 2828 -22 
Q 2503 -91 2169 -91 
Q 1331 -91 842 396 
Q 353 884 353 1716 
Q 353 2575 817 3079 
Q 1281 3584 2069 3584 
Q 2775 3584 3186 3129 
Q 3597 2675 3597 1894 
z
M 3022 2063 
Q 3016 2534 2758 2815 
Q 2500 3097 2075 3097 
Q 1594 3097 1305 2825 
Q 1016 2553 972 2059 
L 3022 2063 
z
" transform="scale(0.015625)"/>
      <path id="DejaVuSans-4f" d="M 603 4863 
L 1178 4863 
L 1178 0 
L 603 0 
L 603 4863 
z
" transform="scale(0.015625)"/>
      <path id="DejaVuSans-47" d="M 2906 2969 
L 2906 4863 
L 3481 4863 
L 3481 0 
L 2906 0 
L 2906 525 
Q 2725 213 2448 61 
Q 2172 -91 1784 -91 
Q 1150 -91 751 415 
Q 353 922 353 1747 
Q 353 2572 751 3078 
Q 1150 3584 1784 3584 
Q 2172 3584 2448 3432 
Q 2725 3281 2906 2969 
z
M 947 1747 
Q 947 1113 1208 752 
Q 1469 391 1925 391 
Q 2381 391 2643 752 
Q 2906 1113 2906 1747 
Q 2906 2381 2643 2742 
Q 2381 3103 1925 3103 
Q 1469 3103 1208 2742 
Q 947 2381 947 1747 
z
" transform="scale(0.015625)"/>
      <path id="DejaVuSans-3" transform="scale(0.015625)"/>
      <path id="DejaVuSans-53" d="M 1159 525 
L 1159 -1331 
L 581 -1331 
L 581 3500 
L 1159 3500 
L 1159 2969 
Q 1341 3281 1617 3432 
Q 1894 3584 2278 3584 
Q 2916 3584 3314 3078 
Q 3713 2572 3713 1747 
Q 3713 922 3314 415 
Q 2916 -91 2278 -91 
Q 1894 -91 1617 61 
Q 1341 213 1159 525 
z
M 3116 1747 
Q 3116 2381 2855 2742 
Q 2594 3103 2138 3103 
Q 1681 3103 1420 2742 
Q 1159 2381 1159 1747 
Q 1159 1113 1420 752 
Q 1681 391 2138 391 
Q 2594 391 2855 752 
Q 3116 1113 3116 1747 
z
" transform="scale(0.015625)"/>
      <path id="DejaVuSans-52" d="M 1959 3097 
Q 1497 3097 1228 2736 
Q 959 2375 959 1747 
Q 959 1119 1226 758 
Q 1494 397 1959 397 
Q 2419 397 2687 759 
Q 2956 1122 2956 1747 
Q 2956 2369 2687 2733 
Q 2419 3097 1959 3097 
z
M 1959 3584 
Q 2709 3584 3137 3096 
Q 3566 2609 3566 1747 
Q 3566 888 3137 398 
Q 2709 -91 1959 -91 
Q 1206 -91 779 398 
Q 353 888 353 1747 
Q 353 2609 779 3096 
Q 1206 3584 1959 3584 
z
" transform="scale(0.015625)"/>
      <path id="DejaVuSans-4c" d="M 603 3500 
L 1178 3500 
L 1178 0 
L 603 0 
L 603 3500 
z
M 603 4863 
L 1178 4863 
L 1178 4134 
L 603 4134 
L 603 4863 
z
" transform="scale(0.015625)"/>
      <path id="DejaVuSans-51" d="M 3513 2113 
L 3513 0 
L 2938 0 
L 2938 2094 
Q 2938 2591 2744 2837 
Q 2550 3084 2163 3084 
Q 1697 3084 1428 2787 
Q 1159 2491 1159 1978 
L 1159 0 
L 581 0 
L 581 3500 
L 1159 3500 
L 1159 2956 
Q 1366 3272 1645 3428 
Q 1925 3584 2291 3584 
Q 2894 3584 3203 3211 
Q 3513 2838 3513 2113 
z
" transform="scale(0.015625)"/>
      <path id="DejaVuSans-57" d="M 1172 4494 
L 1172 3500 
L 2356 3500 
L 2356 3053 
L 1172 3053 
L 1172 1153 
Q 1172 725 1289 603 
Q 1406 481 1766 481 
L 2356 481 
L 2356 0 
L 1766 0 
Q 1100 0 847 248 
Q 594 497 594 1153 
L 594 3053 
L 172 3053 
L 172 3500 
L 594 3500 
L 594 4494 
L 1172 4494 
z
" transform="scale(0.015625)"/>
     </defs>
     <use xlink:href="#DejaVuSans-13af"/>
     <use xlink:href="#DejaVuSans-48" transform="translate(62.984375 0)"/>
     <use xlink:href="#DejaVuSans-4f" transform="translate(124.515625 0)"/>
     <use xlink:href="#DejaVuSans-47" transform="translate(152.296875 0)"/>
     <use xlink:href="#DejaVuSans-3" transform="translate(215.78125 0)"/>
     <use xlink:href="#DejaVuSans-53" transform="translate(247.5625 0)"/>
     <use xlink:href="#DejaVuSans-52" transform="translate(311.046875 0)"/>
     <use xlink:href="#DejaVuSans-4c" transform="translate(372.234375 0)"/>
     <use xlink:href="#DejaVuSans-51" transform="translate(400.015625 0)"/>
     <use xlink:href="#DejaVuSans-57" transform="translate(463.390625 0)"/>
    </g>
   </g>
   <g id="patch_3">
    <path d="M 114.745263 74.804211 
L 124.143158 74.804211 
L 124.143158 65.406316 
L 114.745263 65.406316 
z
" clip-path="url(#p84afeb68bb)" style="fill: #cc79a7; fill-opacity: 0.5; stroke: #cc79a7; stroke-width: 1.4; stroke-linejoin: miter"/>
   </g>
   <g id="text_2">
    <!-- $\mathscr{r}_1/c$ ago -->
    <g style="fill: #cc79a7" transform="translate(100.994211 86.496051) scale(0.09 -0.09)">
     <defs>
      <path id="STIXGeneral-Italic-3ae" d="M 3642 1990 
L 3661 1818 
Q 3571 1773 3456 1773 
Q 3034 1773 2899 2080 
L 1235 851 
L 781 0 
L 314 0 
L 1485 2214 
Q 1146 1894 678 1894 
Q 474 1894 307 1997 
L 371 2163 
Q 538 2086 691 2086 
Q 1203 2086 1760 2714 
L 2221 2714 
L 1453 1254 
L 1466 1248 
L 2835 2272 
Q 2835 2534 2972 2688 
Q 3110 2842 3328 2842 
Q 3450 2842 3523 2784 
Q 3597 2726 3597 2669 
L 3059 2195 
Q 3168 1965 3456 1965 
Q 3539 1965 3642 1990 
z
" transform="scale(0.015625)"/>
      <path id="Cmr10-64" d="M 594 0 
L 594 225 
Q 1394 225 1394 428 
L 1394 3788 
Q 1063 3628 556 3628 
L 556 3853 
Q 1341 3853 1741 4263 
L 1831 4263 
Q 1853 4263 1873 4245 
Q 1894 4228 1894 4206 
L 1894 428 
Q 1894 225 2694 225 
L 2694 0 
L 594 0 
z
" transform="scale(0.015625)"/>
      <path id="Cmmi10-62" d="M 359 -1472 
Q 359 -1453 366 -1447 
L 2591 4722 
Q 2603 4759 2634 4779 
Q 2666 4800 2706 4800 
Q 2763 4800 2798 4765 
Q 2834 4731 2834 4672 
L 2834 4647 
L 609 -1522 
Q 572 -1600 488 -1600 
Q 434 -1600 396 -1562 
Q 359 -1525 359 -1472 
z
" transform="scale(0.015625)"/>
      <path id="Cmmi10-7f" d="M 750 763 
Q 750 484 892 290 
Q 1034 97 1300 97 
Q 1681 97 2032 272 
Q 2384 447 2606 756 
Q 2625 775 2656 775 
Q 2688 775 2720 739 
Q 2753 703 2753 672 
Q 2753 647 2741 634 
Q 2506 306 2109 117 
Q 1713 -72 1288 -72 
Q 981 -72 747 73 
Q 513 219 384 462 
Q 256 706 256 1013 
Q 256 1444 497 1869 
Q 738 2294 1138 2561 
Q 1538 2828 1978 2828 
Q 2266 2828 2495 2689 
Q 2725 2550 2725 2278 
Q 2725 2103 2623 1979 
Q 2522 1856 2350 1856 
Q 2247 1856 2176 1920 
Q 2106 1984 2106 2088 
Q 2106 2238 2215 2344 
Q 2325 2450 2472 2450 
L 2484 2450 
Q 2409 2559 2267 2611 
Q 2125 2663 1972 2663 
Q 1597 2663 1315 2342 
Q 1034 2022 892 1576 
Q 750 1131 750 763 
z
" transform="scale(0.015625)"/>
      <path id="DejaVuSans-44" d="M 2194 1759 
Q 1497 1759 1228 1600 
Q 959 1441 959 1056 
Q 959 750 1161 570 
Q 1363 391 1709 391 
Q 2188 391 2477 730 
Q 2766 1069 2766 1631 
L 2766 1759 
L 2194 1759 
z
M 3341 1997 
L 3341 0 
L 2766 0 
L 2766 531 
Q 2569 213 2275 61 
Q 1981 -91 1556 -91 
Q 1019 -91 701 211 
Q 384 513 384 1019 
Q 384 1609 779 1909 
Q 1175 2209 1959 2209 
L 2766 2209 
L 2766 2266 
Q 2766 2663 2505 2880 
Q 2244 3097 1772 3097 
Q 1472 3097 1187 3025 
Q 903 2953 641 2809 
L 641 3341 
Q 956 3463 1253 3523 
Q 1550 3584 1831 3584 
Q 2591 3584 2966 3190 
Q 3341 2797 3341 1997 
z
" transform="scale(0.015625)"/>
      <path id="DejaVuSans-4a" d="M 2906 1791 
Q 2906 2416 2648 2759 
Q 2391 3103 1925 3103 
Q 1463 3103 1205 2759 
Q 947 2416 947 1791 
Q 947 1169 1205 825 
Q 1463 481 1925 481 
Q 2391 481 2648 825 
Q 2906 1169 2906 1791 
z
M 3481 434 
Q 3481 -459 3084 -895 
Q 2688 -1331 1869 -1331 
Q 1566 -1331 1297 -1286 
Q 1028 -1241 775 -1147 
L 775 -588 
Q 1028 -725 1275 -790 
Q 1522 -856 1778 -856 
Q 2344 -856 2625 -561 
Q 2906 -266 2906 331 
L 2906 616 
Q 2728 306 2450 153 
Q 2172 0 1784 0 
Q 1141 0 747 490 
Q 353 981 353 1791 
Q 353 2603 747 3093 
Q 1141 3584 1784 3584 
Q 2172 3584 2450 3431 
Q 2728 3278 2906 2969 
L 2906 3500 
L 3481 3500 
L 3481 434 
z
" transform="scale(0.015625)"/>
     </defs>
     <use xlink:href="#STIXGeneral-Italic-3ae"/>
     <use xlink:href="#Cmr10-64" transform="translate(57.999939 -14.999962) scale(0.7)"/>
     <use xlink:href="#Cmmi10-62" transform="translate(98.720354 0)"/>
     <use xlink:href="#Cmmi10-7f" transform="translate(148.720354 0)"/>
     <use xlink:href="#DejaVuSans-3" transform="translate(191.933245 0)"/>
     <use xlink:href="#DejaVuSans-44" transform="translate(223.720354 0)"/>
     <use xlink:href="#DejaVuSans-4a" transform="translate(284.999651 0)"/>
     <use xlink:href="#DejaVuSans-52" transform="translate(348.476214 0)"/>
    </g>
   </g>
   <g id="patch_4">
    <path d="M 60.707368 100.648421 
L 70.105263 100.648421 
L 70.105263 91.250526 
L 60.707368 91.250526 
z
" clip-path="url(#p84afeb68bb)" style="fill: #cc79a7; fill-opacity: 0.5; stroke: #cc79a7; stroke-width: 1.4; stroke-linejoin: miter"/>
   </g>
   <g id="text_3">
    <!-- $\mathscr{r}_2/c$ ago -->
    <g style="fill: #cc79a7" transform="translate(46.956316 112.340261) scale(0.09 -0.09)">
     <defs>
      <path id="Cmr10-31" d="M 319 0 
L 319 172 
Q 319 188 331 206 
L 1325 1306 
Q 1550 1550 1690 1715 
Q 1831 1881 1968 2097 
Q 2106 2313 2186 2536 
Q 2266 2759 2266 3009 
Q 2266 3272 2169 3511 
Q 2072 3750 1880 3894 
Q 1688 4038 1416 4038 
Q 1138 4038 916 3870 
Q 694 3703 603 3438 
Q 628 3444 672 3444 
Q 816 3444 917 3347 
Q 1019 3250 1019 3097 
Q 1019 2950 917 2848 
Q 816 2747 672 2747 
Q 522 2747 420 2851 
Q 319 2956 319 3097 
Q 319 3338 409 3548 
Q 500 3759 670 3923 
Q 841 4088 1055 4175 
Q 1269 4263 1509 4263 
Q 1875 4263 2190 4108 
Q 2506 3953 2690 3670 
Q 2875 3388 2875 3009 
Q 2875 2731 2753 2481 
Q 2631 2231 2440 2026 
Q 2250 1822 1953 1562 
Q 1656 1303 1563 1216 
L 838 519 
L 1453 519 
Q 1906 519 2211 526 
Q 2516 534 2534 550 
Q 2609 631 2688 1141 
L 2875 1141 
L 2694 0 
L 319 0 
z
" transform="scale(0.015625)"/>
     </defs>
     <use xlink:href="#STIXGeneral-Italic-3ae"/>
     <use xlink:href="#Cmr10-31" transform="translate(57.999939 -14.999962) scale(0.7)"/>
     <use xlink:href="#Cmmi10-62" transform="translate(98.720354 0)"/>
     <use xlink:href="#Cmmi10-7f" transform="translate(148.720354 0)"/>
     <use xlink:href="#DejaVuSans-3" transform="translate(191.933245 0)"/>
     <use xlink:href="#DejaVuSans-44" transform="translate(223.720354 0)"/>
     <use xlink:href="#DejaVuSans-4a" transform="translate(284.999651 0)"/>
     <use xlink:href="#DejaVuSans-52" transform="translate(348.476214 0)"/>
    </g>
   </g>
   <g id="line2d_4">
    <defs>
     <path id="m1c03ed7127" d="M 0 3 
C 0.795609 3 1.55874 2.683901 2.12132 2.12132 
C 2.683901 1.55874 3 0.795609 3 0 
C 3 -0.795609 2.683901 -1.55874 2.12132 -2.12132 
C 1.55874 -2.683901 0.795609 -3 0 -3 
C -0.795609 -3 -1.55874 -2.683901 -2.12132 -2.12132 
C -2.683901 -1.55874 -3 -0.795609 -3 0 
C -3 0.795609 -2.683901 1.55874 -2.12132 2.12132 
C -1.55874 2.683901 -0.795609 3 0 3 
z
" style="stroke: var(--ink)"/>
    </defs>
    <g clip-path="url(#p84afeb68bb)">
     <use xlink:href="#m1c03ed7127" x="248.665263" y="56.008421" style="fill: var(--ink); stroke: var(--ink)"/>
    </g>
   </g>
   <g id="text_4">
    <g id="patch_5">
     <path d="M 23.472401 146.989786 
L 248.308651 146.989786 
Q 253.108651 146.989786 253.108651 142.189786 
L 253.108651 138.989161 
Q 253.108651 134.189161 248.308651 134.189161 
L 23.472401 134.189161 
Q 18.672401 134.189161 18.672401 138.989161 
L 18.672401 142.189786 
Q 18.672401 146.989786 23.472401 146.989786 
z
" style="fill: var(--muted)"/>
    </g>
    <!-- each piece is counted as it was when its signal left -->
    <g style="fill: var(--tagtext)" transform="translate(21.072401 142.667911) scale(0.08 -0.08)">
     <defs>
      <path id="DejaVuSans-Bold-48" d="M 4031 1759 
L 4031 1441 
L 1416 1441 
Q 1456 1047 1700 850 
Q 1944 653 2381 653 
Q 2734 653 3104 758 
Q 3475 863 3866 1075 
L 3866 213 
Q 3469 63 3072 -14 
Q 2675 -91 2278 -91 
Q 1328 -91 801 392 
Q 275 875 275 1747 
Q 275 2603 792 3093 
Q 1309 3584 2216 3584 
Q 3041 3584 3536 3087 
Q 4031 2591 4031 1759 
z
M 2881 2131 
Q 2881 2450 2695 2645 
Q 2509 2841 2209 2841 
Q 1884 2841 1681 2658 
Q 1478 2475 1428 2131 
L 2881 2131 
z
" transform="scale(0.015625)"/>
      <path id="DejaVuSans-Bold-44" d="M 2106 1575 
Q 1756 1575 1579 1456 
Q 1403 1338 1403 1106 
Q 1403 894 1545 773 
Q 1688 653 1941 653 
Q 2256 653 2472 879 
Q 2688 1106 2688 1447 
L 2688 1575 
L 2106 1575 
z
M 3816 1997 
L 3816 0 
L 2688 0 
L 2688 519 
Q 2463 200 2181 54 
Q 1900 -91 1497 -91 
Q 953 -91 614 226 
Q 275 544 275 1050 
Q 275 1666 698 1953 
Q 1122 2241 2028 2241 
L 2688 2241 
L 2688 2328 
Q 2688 2594 2478 2717 
Q 2269 2841 1825 2841 
Q 1466 2841 1156 2769 
Q 847 2697 581 2553 
L 581 3406 
Q 941 3494 1303 3539 
Q 1666 3584 2028 3584 
Q 2975 3584 3395 3211 
Q 3816 2838 3816 1997 
z
" transform="scale(0.015625)"/>
      <path id="DejaVuSans-Bold-46" d="M 3366 3391 
L 3366 2478 
Q 3138 2634 2908 2709 
Q 2678 2784 2431 2784 
Q 1963 2784 1702 2511 
Q 1441 2238 1441 1747 
Q 1441 1256 1702 982 
Q 1963 709 2431 709 
Q 2694 709 2930 787 
Q 3166 866 3366 1019 
L 3366 103 
Q 3103 6 2833 -42 
Q 2563 -91 2291 -91 
Q 1344 -91 809 395 
Q 275 881 275 1747 
Q 275 2613 809 3098 
Q 1344 3584 2291 3584 
Q 2566 3584 2833 3536 
Q 3100 3488 3366 3391 
z
" transform="scale(0.015625)"/>
      <path id="DejaVuSans-Bold-4b" d="M 4056 2131 
L 4056 0 
L 2931 0 
L 2931 347 
L 2931 1625 
Q 2931 2084 2911 2256 
Q 2891 2428 2841 2509 
Q 2775 2619 2662 2680 
Q 2550 2741 2406 2741 
Q 2056 2741 1856 2470 
Q 1656 2200 1656 1722 
L 1656 0 
L 538 0 
L 538 4863 
L 1656 4863 
L 1656 2988 
Q 1909 3294 2193 3439 
Q 2478 3584 2822 3584 
Q 3428 3584 3742 3212 
Q 4056 2841 4056 2131 
z
" transform="scale(0.015625)"/>
      <path id="DejaVuSans-Bold-3" transform="scale(0.015625)"/>
      <path id="DejaVuSans-Bold-53" d="M 1656 506 
L 1656 -1331 
L 538 -1331 
L 538 3500 
L 1656 3500 
L 1656 2988 
Q 1888 3294 2169 3439 
Q 2450 3584 2816 3584 
Q 3463 3584 3878 3070 
Q 4294 2556 4294 1747 
Q 4294 938 3878 423 
Q 3463 -91 2816 -91 
Q 2450 -91 2169 54 
Q 1888 200 1656 506 
z
M 2400 2772 
Q 2041 2772 1848 2508 
Q 1656 2244 1656 1747 
Q 1656 1250 1848 986 
Q 2041 722 2400 722 
Q 2759 722 2948 984 
Q 3138 1247 3138 1747 
Q 3138 2247 2948 2509 
Q 2759 2772 2400 2772 
z
" transform="scale(0.015625)"/>
      <path id="DejaVuSans-Bold-4c" d="M 538 3500 
L 1656 3500 
L 1656 0 
L 538 0 
L 538 3500 
z
M 538 4863 
L 1656 4863 
L 1656 3950 
L 538 3950 
L 538 4863 
z
" transform="scale(0.015625)"/>
      <path id="DejaVuSans-Bold-56" d="M 3272 3391 
L 3272 2541 
Q 2913 2691 2578 2766 
Q 2244 2841 1947 2841 
Q 1628 2841 1473 2761 
Q 1319 2681 1319 2516 
Q 1319 2381 1436 2309 
Q 1553 2238 1856 2203 
L 2053 2175 
Q 2913 2066 3209 1816 
Q 3506 1566 3506 1031 
Q 3506 472 3093 190 
Q 2681 -91 1863 -91 
Q 1516 -91 1145 -36 
Q 775 19 384 128 
L 384 978 
Q 719 816 1070 734 
Q 1422 653 1784 653 
Q 2113 653 2278 743 
Q 2444 834 2444 1013 
Q 2444 1163 2330 1236 
Q 2216 1309 1875 1350 
L 1678 1375 
Q 931 1469 631 1722 
Q 331 1975 331 2491 
Q 331 3047 712 3315 
Q 1094 3584 1881 3584 
Q 2191 3584 2531 3537 
Q 2872 3491 3272 3391 
z
" transform="scale(0.015625)"/>
      <path id="DejaVuSans-Bold-52" d="M 2203 2784 
Q 1831 2784 1636 2517 
Q 1441 2250 1441 1747 
Q 1441 1244 1636 976 
Q 1831 709 2203 709 
Q 2569 709 2762 976 
Q 2956 1244 2956 1747 
Q 2956 2250 2762 2517 
Q 2569 2784 2203 2784 
z
M 2203 3584 
Q 3106 3584 3614 3096 
Q 4122 2609 4122 1747 
Q 4122 884 3614 396 
Q 3106 -91 2203 -91 
Q 1297 -91 786 396 
Q 275 884 275 1747 
Q 275 2609 786 3096 
Q 1297 3584 2203 3584 
z
" transform="scale(0.015625)"/>
      <path id="DejaVuSans-Bold-58" d="M 500 1363 
L 500 3500 
L 1625 3500 
L 1625 3150 
Q 1625 2866 1622 2436 
Q 1619 2006 1619 1863 
Q 1619 1441 1641 1255 
Q 1663 1069 1716 984 
Q 1784 875 1895 815 
Q 2006 756 2150 756 
Q 2500 756 2700 1025 
Q 2900 1294 2900 1772 
L 2900 3500 
L 4019 3500 
L 4019 0 
L 2900 0 
L 2900 506 
Q 2647 200 2364 54 
Q 2081 -91 1741 -91 
Q 1134 -91 817 281 
Q 500 653 500 1363 
z
" transform="scale(0.015625)"/>
      <path id="DejaVuSans-Bold-51" d="M 4056 2131 
L 4056 0 
L 2931 0 
L 2931 347 
L 2931 1631 
Q 2931 2084 2911 2256 
Q 2891 2428 2841 2509 
Q 2775 2619 2662 2680 
Q 2550 2741 2406 2741 
Q 2056 2741 1856 2470 
Q 1656 2200 1656 1722 
L 1656 0 
L 538 0 
L 538 3500 
L 1656 3500 
L 1656 2988 
Q 1909 3294 2193 3439 
Q 2478 3584 2822 3584 
Q 3428 3584 3742 3212 
Q 4056 2841 4056 2131 
z
" transform="scale(0.015625)"/>
      <path id="DejaVuSans-Bold-57" d="M 1759 4494 
L 1759 3500 
L 2913 3500 
L 2913 2700 
L 1759 2700 
L 1759 1216 
Q 1759 972 1856 886 
Q 1953 800 2241 800 
L 2816 800 
L 2816 0 
L 1856 0 
Q 1194 0 917 276 
Q 641 553 641 1216 
L 641 2700 
L 84 2700 
L 84 3500 
L 641 3500 
L 641 4494 
L 1759 4494 
z
" transform="scale(0.015625)"/>
      <path id="DejaVuSans-Bold-47" d="M 2919 2988 
L 2919 4863 
L 4044 4863 
L 4044 0 
L 2919 0 
L 2919 506 
Q 2688 197 2409 53 
Q 2131 -91 1766 -91 
Q 1119 -91 703 423 
Q 288 938 288 1747 
Q 288 2556 703 3070 
Q 1119 3584 1766 3584 
Q 2128 3584 2408 3439 
Q 2688 3294 2919 2988 
z
M 2181 722 
Q 2541 722 2730 984 
Q 2919 1247 2919 1747 
Q 2919 2247 2730 2509 
Q 2541 2772 2181 2772 
Q 1825 2772 1636 2509 
Q 1447 2247 1447 1747 
Q 1447 1247 1636 984 
Q 1825 722 2181 722 
z
" transform="scale(0.015625)"/>
      <path id="DejaVuSans-Bold-5a" d="M 225 3500 
L 1313 3500 
L 1900 1088 
L 2491 3500 
L 3425 3500 
L 4013 1113 
L 4603 3500 
L 5691 3500 
L 4769 0 
L 3547 0 
L 2956 2406 
L 2369 0 
L 1147 0 
L 225 3500 
z
" transform="scale(0.015625)"/>
      <path id="DejaVuSans-Bold-4a" d="M 2919 594 
Q 2688 288 2409 144 
Q 2131 0 1766 0 
Q 1125 0 706 504 
Q 288 1009 288 1791 
Q 288 2575 706 3076 
Q 1125 3578 1766 3578 
Q 2131 3578 2409 3434 
Q 2688 3291 2919 2981 
L 2919 3500 
L 4044 3500 
L 4044 353 
Q 4044 -491 3511 -936 
Q 2978 -1381 1966 -1381 
Q 1638 -1381 1331 -1331 
Q 1025 -1281 716 -1178 
L 716 -306 
Q 1009 -475 1290 -558 
Q 1572 -641 1856 -641 
Q 2406 -641 2662 -400 
Q 2919 -159 2919 353 
L 2919 594 
z
M 2181 2772 
Q 1834 2772 1640 2515 
Q 1447 2259 1447 1791 
Q 1447 1309 1634 1061 
Q 1822 813 2181 813 
Q 2531 813 2725 1069 
Q 2919 1325 2919 1791 
Q 2919 2259 2725 2515 
Q 2531 2772 2181 2772 
z
" transform="scale(0.015625)"/>
      <path id="DejaVuSans-Bold-4f" d="M 538 4863 
L 1656 4863 
L 1656 0 
L 538 0 
L 538 4863 
z
" transform="scale(0.015625)"/>
      <path id="DejaVuSans-Bold-49" d="M 2841 4863 
L 2841 4128 
L 2222 4128 
Q 1984 4128 1890 4042 
Q 1797 3956 1797 3744 
L 1797 3500 
L 2753 3500 
L 2753 2700 
L 1797 2700 
L 1797 0 
L 678 0 
L 678 2700 
L 122 2700 
L 122 3500 
L 678 3500 
L 678 3744 
Q 678 4316 997 4589 
Q 1316 4863 1984 4863 
L 2841 4863 
z
" transform="scale(0.015625)"/>
     </defs>
     <use xlink:href="#DejaVuSans-Bold-48"/>
     <use xlink:href="#DejaVuSans-Bold-44" transform="translate(67.828125 0)"/>
     <use xlink:href="#DejaVuSans-Bold-46" transform="translate(135.3125 0)"/>
     <use xlink:href="#DejaVuSans-Bold-4b" transform="translate(194.59375 0)"/>
     <use xlink:href="#DejaVuSans-Bold-3" transform="translate(265.78125 0)"/>
     <use xlink:href="#DejaVuSans-Bold-53" transform="translate(300.59375 0)"/>
     <use xlink:href="#DejaVuSans-Bold-4c" transform="translate(372.171875 0)"/>
     <use xlink:href="#DejaVuSans-Bold-48" transform="translate(406.453125 0)"/>
     <use xlink:href="#DejaVuSans-Bold-46" transform="translate(474.28125 0)"/>
     <use xlink:href="#DejaVuSans-Bold-48" transform="translate(533.5625 0)"/>
     <use xlink:href="#DejaVuSans-Bold-3" transform="translate(601.390625 0)"/>
     <use xlink:href="#DejaVuSans-Bold-4c" transform="translate(636.203125 0)"/>
     <use xlink:href="#DejaVuSans-Bold-56" transform="translate(670.484375 0)"/>
     <use xlink:href="#DejaVuSans-Bold-3" transform="translate(730 0)"/>
     <use xlink:href="#DejaVuSans-Bold-46" transform="translate(764.8125 0)"/>
     <use xlink:href="#DejaVuSans-Bold-52" transform="translate(824.09375 0)"/>
     <use xlink:href="#DejaVuSans-Bold-58" transform="translate(892.796875 0)"/>
     <use xlink:href="#DejaVuSans-Bold-51" transform="translate(963.984375 0)"/>
     <use xlink:href="#DejaVuSans-Bold-57" transform="translate(1035.171875 0)"/>
     <use xlink:href="#DejaVuSans-Bold-48" transform="translate(1082.96875 0)"/>
     <use xlink:href="#DejaVuSans-Bold-47" transform="translate(1150.796875 0)"/>
     <use xlink:href="#DejaVuSans-Bold-3" transform="translate(1222.375 0)"/>
     <use xlink:href="#DejaVuSans-Bold-44" transform="translate(1257.1875 0)"/>
     <use xlink:href="#DejaVuSans-Bold-56" transform="translate(1324.671875 0)"/>
     <use xlink:href="#DejaVuSans-Bold-3" transform="translate(1384.1875 0)"/>
     <use xlink:href="#DejaVuSans-Bold-4c" transform="translate(1419 0)"/>
     <use xlink:href="#DejaVuSans-Bold-57" transform="translate(1453.28125 0)"/>
     <use xlink:href="#DejaVuSans-Bold-3" transform="translate(1501.078125 0)"/>
     <use xlink:href="#DejaVuSans-Bold-5a" transform="translate(1535.890625 0)"/>
     <use xlink:href="#DejaVuSans-Bold-44" transform="translate(1628.28125 0)"/>
     <use xlink:href="#DejaVuSans-Bold-56" transform="translate(1695.765625 0)"/>
     <use xlink:href="#DejaVuSans-Bold-3" transform="translate(1755.28125 0)"/>
     <use xlink:href="#DejaVuSans-Bold-5a" transform="translate(1790.09375 0)"/>
     <use xlink:href="#DejaVuSans-Bold-4b" transform="translate(1882.484375 0)"/>
     <use xlink:href="#DejaVuSans-Bold-48" transform="translate(1953.671875 0)"/>
     <use xlink:href="#DejaVuSans-Bold-51" transform="translate(2021.5 0)"/>
     <use xlink:href="#DejaVuSans-Bold-3" transform="translate(2092.6875 0)"/>
     <use xlink:href="#DejaVuSans-Bold-4c" transform="translate(2127.5 0)"/>
     <use xlink:href="#DejaVuSans-Bold-57" transform="translate(2161.78125 0)"/>
     <use xlink:href="#DejaVuSans-Bold-56" transform="translate(2209.578125 0)"/>
     <use xlink:href="#DejaVuSans-Bold-3" transform="translate(2269.09375 0)"/>
     <use xlink:href="#DejaVuSans-Bold-56" transform="translate(2303.90625 0)"/>
     <use xlink:href="#DejaVuSans-Bold-4c" transform="translate(2363.421875 0)"/>
     <use xlink:href="#DejaVuSans-Bold-4a" transform="translate(2397.703125 0)"/>
     <use xlink:href="#DejaVuSans-Bold-51" transform="translate(2469.28125 0)"/>
     <use xlink:href="#DejaVuSans-Bold-44" transform="translate(2540.46875 0)"/>
     <use xlink:href="#DejaVuSans-Bold-4f" transform="translate(2607.953125 0)"/>
     <use xlink:href="#DejaVuSans-Bold-3" transform="translate(2642.234375 0)"/>
     <use xlink:href="#DejaVuSans-Bold-4f" transform="translate(2677.046875 0)"/>
     <use xlink:href="#DejaVuSans-Bold-48" transform="translate(2711.328125 0)"/>
     <use xlink:href="#DejaVuSans-Bold-49" transform="translate(2779.15625 0)"/>
     <use xlink:href="#DejaVuSans-Bold-57" transform="translate(2822.65625 0)"/>
    </g>
   </g>
  </g>
 </g>
 <defs>
  <clipPath id="p84afeb68bb">
   <rect x="4.32" y="4.32" width="267.84" height="140.968421"/>
  </clipPath>
 </defs>
</svg>
