<?xml version="1.0" encoding="utf-8" standalone="no"?>
<!DOCTYPE svg PUBLIC "-//W3C//DTD SVG 1.1//EN"
  "http://www.w3.org/Graphics/SVG/1.1/DTD/svg11.dtd">
<svg xmlns:xlink="http://www.w3.org/1999/xlink" width="201.1525pt" height="184.41pt" viewBox="0 0 201.1525 184.41" xmlns="http://www.w3.org/2000/svg" version="1.1">
<style>
  svg { --ink: #111827; --muted: #475569; --tagtext: #ffffff; }
  @media (prefers-color-scheme: dark) { svg { --ink: #f3f4f6; --muted: #aab2bd; --tagtext: #111827; } }
</style>

 <metadata>
  <rdf:RDF xmlns:dc="http://purl.org/dc/elements/1.1/" xmlns:cc="http://creativecommons.org/ns#" xmlns:rdf="http://www.w3.org/1999/02/22-rdf-syntax-ns#">
   <cc:Work>
    <dc:type rdf:resource="http://purl.org/dc/dcmitype/StillImage"/>
    <dc:date>2026-09-22T13:44:42.104170</dc:date>
    <dc:format>image/svg+xml</dc:format>
    <dc:creator>
     <cc:Agent>
      <dc:title>Matplotlib v3.11.1, https://matplotlib.org/</dc:title>
     </cc:Agent>
    </dc:creator>
   </cc:Work>
  </rdf:RDF>
 </metadata>
 <defs>
  <style type="text/css">*{stroke-linejoin: round; stroke-linecap: butt}</style>
 </defs>
 <g id="figure_1">
  <g id="patch_1">
   <path d="M 0 184.41 
L 201.1525 184.41 
L 201.1525 0 
L 0 0 
L 0 184.41 
z
" style="fill: none"/>
  </g>
  <g id="axes_1">
   <g id="patch_2">
    <path d="M 100.57625 146.61 
C 115.374583 146.61 129.568807 140.73056 140.032808 130.266558 
C 150.49681 119.802557 156.37625 105.608333 156.37625 90.81 
C 156.37625 76.011667 150.49681 61.817443 140.032808 51.353442 
C 129.568807 40.88944 115.374583 35.01 100.57625 35.01 
C 85.777917 35.01 71.583693 40.88944 61.119692 51.353442 
C 50.65569 61.817443 44.77625 76.011667 44.77625 90.81 
C 44.77625 105.608333 50.65569 119.802557 61.119692 130.266558 
C 71.583693 140.73056 85.777917 146.61 100.57625 146.61 
z
" clip-path="url(#pa7aecce22f)" style="fill: var(--muted); fill-opacity: 0.35; stroke: var(--muted); stroke-width: 1.6; stroke-linejoin: miter"/>
   </g>
   <g id="patch_3">
    <path d="M 100.57625 94.158 
C 101.46415 94.158 102.315803 93.805234 102.943644 93.177394 
C 103.571484 92.549553 103.92425 91.6979 103.92425 90.81 
C 103.92425 89.9221 103.571484 89.070447 102.943644 88.442606 
C 102.315803 87.814766 101.46415 87.462 100.57625 87.462 
C 99.68835 87.462 98.836697 87.814766 98.208856 88.442606 
C 97.581016 89.070447 97.22825 89.9221 97.22825 90.81 
C 97.22825 91.6979 97.581016 92.549553 98.208856 93.177394 
C 98.836697 93.805234 99.68835 94.158 100.57625 94.158 
L 100.57625 94.158 
z
" clip-path="url(#pa7aecce22f)" style="fill: none; stroke: #009e73; stroke-width: 1.2; stroke-linejoin: miter"/>
   </g>
   <g id="patch_4">
    <path d="M 100.57625 91.74744 
C 100.824862 91.74744 101.063325 91.648665 101.23912 91.47287 
C 101.414915 91.297075 101.51369 91.058612 101.51369 90.81 
C 101.51369 90.561388 101.414915 90.322925 101.23912 90.14713 
C 101.063325 89.971335 100.824862 89.87256 100.57625 89.87256 
C 100.327638 89.87256 100.089175 89.971335 99.91338 90.14713 
C 99.737585 90.322925 99.63881 90.561388 99.63881 90.81 
C 99.63881 91.058612 99.737585 91.297075 99.91338 91.47287 
C 100.089175 91.648665 100.327638 91.74744 100.57625 91.74744 
z
" clip-path="url(#pa7aecce22f)" style="fill: #009e73; stroke: #009e73; stroke-linejoin: miter"/>
   </g>
   <g id="patch_5">
    <path d="M 125.68625 80.208 
C 126.57415 80.208 127.425803 79.855234 128.053644 79.227394 
C 128.681484 78.599553 129.03425 77.7479 129.03425 76.86 
C 129.03425 75.9721 128.681484 75.120447 128.053644 74.492606 
C 127.425803 73.864766 126.57415 73.512 125.68625 73.512 
C 124.79835 73.512 123.946697 73.864766 123.318856 74.492606 
C 122.691016 75.120447 122.33825 75.9721 122.33825 76.86 
C 122.33825 77.7479 122.691016 78.599553 123.318856 79.227394 
C 123.946697 79.855234 124.79835 80.208 125.68625 80.208 
L 125.68625 80.208 
z
" clip-path="url(#pa7aecce22f)" style="fill: none; stroke: #009e73; stroke-width: 1.2; stroke-linejoin: miter"/>
   </g>
   <g id="patch_6">
    <path d="M 125.68625 77.79744 
C 125.934862 77.79744 126.173325 77.698665 126.34912 77.52287 
C 126.524915 77.347075 126.62369 77.108612 126.62369 76.86 
C 126.62369 76.611388 126.524915 76.372925 126.34912 76.19713 
C 126.173325 76.021335 125.934862 75.92256 125.68625 75.92256 
C 125.437638 75.92256 125.199175 76.021335 125.02338 76.19713 
C 124.847585 76.372925 124.74881 76.611388 124.74881 76.86 
C 124.74881 77.108612 124.847585 77.347075 125.02338 77.52287 
C 125.199175 77.698665 125.437638 77.79744 125.68625 77.79744 
z
" clip-path="url(#pa7aecce22f)" style="fill: #009e73; stroke: #009e73; stroke-linejoin: miter"/>
   </g>
   <g id="patch_7">
    <path d="M 78.25625 77.418 
C 79.14415 77.418 79.995803 77.065234 80.623644 76.437394 
C 81.251484 75.809553 81.60425 74.9579 81.60425 74.07 
C 81.60425 73.1821 81.251484 72.330447 80.623644 71.702606 
C 79.995803 71.074766 79.14415 70.722 78.25625 70.722 
C 77.36835 70.722 76.516697 71.074766 75.888856 71.702606 
C 75.261016 72.330447 74.90825 73.1821 74.90825 74.07 
C 74.90825 74.9579 75.261016 75.809553 75.888856 76.437394 
C 76.516697 77.065234 77.36835 77.418 78.25625 77.418 
L 78.25625 77.418 
z
" clip-path="url(#pa7aecce22f)" style="fill: none; stroke: #009e73; stroke-width: 1.2; stroke-linejoin: miter"/>
   </g>
   <g id="patch_8">
    <path d="M 78.25625 75.00744 
C 78.504862 75.00744 78.743325 74.908665 78.91912 74.73287 
C 79.094915 74.557075 79.19369 74.318612 79.19369 74.07 
C 79.19369 73.821388 79.094915 73.582925 78.91912 73.40713 
C 78.743325 73.231335 78.504862 73.13256 78.25625 73.13256 
C 78.007638 73.13256 77.769175 73.231335 77.59338 73.40713 
C 77.417585 73.582925 77.31881 73.821388 77.31881 74.07 
C 77.31881 74.318612 77.417585 74.557075 77.59338 74.73287 
C 77.769175 74.908665 78.007638 75.00744 78.25625 75.00744 
z
" clip-path="url(#pa7aecce22f)" style="fill: #009e73; stroke: #009e73; stroke-linejoin: miter"/>
   </g>
   <g id="patch_9">
    <path d="M 89.41625 119.268 
C 90.30415 119.268 91.155803 118.915234 91.783644 118.287394 
C 92.411484 117.659553 92.76425 116.8079 92.76425 115.92 
C 92.76425 115.0321 92.411484 114.180447 91.783644 113.552606 
C 91.155803 112.924766 90.30415 112.572 89.41625 112.572 
C 88.52835 112.572 87.676697 112.924766 87.048856 113.552606 
C 86.421016 114.180447 86.06825 115.0321 86.06825 115.92 
C 86.06825 116.8079 86.421016 117.659553 87.048856 118.287394 
C 87.676697 118.915234 88.52835 119.268 89.41625 119.268 
L 89.41625 119.268 
z
" clip-path="url(#pa7aecce22f)" style="fill: none; stroke: #009e73; stroke-width: 1.2; stroke-linejoin: miter"/>
   </g>
   <g id="patch_10">
    <path d="M 89.41625 116.85744 
C 89.664862 116.85744 89.903325 116.758665 90.07912 116.58287 
C 90.254915 116.407075 90.35369 116.168612 90.35369 115.92 
C 90.35369 115.671388 90.254915 115.432925 90.07912 115.25713 
C 89.903325 115.081335 89.664862 114.98256 89.41625 114.98256 
C 89.167638 114.98256 88.929175 115.081335 88.75338 115.25713 
C 88.577585 115.432925 88.47881 115.671388 88.47881 115.92 
C 88.47881 116.168612 88.577585 116.407075 88.75338 116.58287 
C 88.929175 116.758665 89.167638 116.85744 89.41625 116.85744 
z
" clip-path="url(#pa7aecce22f)" style="fill: #009e73; stroke: #009e73; stroke-linejoin: miter"/>
   </g>
   <g id="patch_11">
    <path d="M 120.10625 116.478 
C 120.99415 116.478 121.845803 116.125234 122.473644 115.497394 
C 123.101484 114.869553 123.45425 114.0179 123.45425 113.13 
C 123.45425 112.2421 123.101484 111.390447 122.473644 110.762606 
C 121.845803 110.134766 120.99415 109.782 120.10625 109.782 
C 119.21835 109.782 118.366697 110.134766 117.738856 110.762606 
C 117.111016 111.390447 116.75825 112.2421 116.75825 113.13 
C 116.75825 114.0179 117.111016 114.869553 117.738856 115.497394 
C 118.366697 116.125234 119.21835 116.478 120.10625 116.478 
L 120.10625 116.478 
z
" clip-path="url(#pa7aecce22f)" style="fill: none; stroke: #009e73; stroke-width: 1.2; stroke-linejoin: miter"/>
   </g>
   <g id="patch_12">
    <path d="M 120.10625 114.06744 
C 120.354862 114.06744 120.593325 113.968665 120.76912 113.79287 
C 120.944915 113.617075 121.04369 113.378612 121.04369 113.13 
C 121.04369 112.881388 120.944915 112.642925 120.76912 112.46713 
C 120.593325 112.291335 120.354862 112.19256 120.10625 112.19256 
C 119.857638 112.19256 119.619175 112.291335 119.44338 112.46713 
C 119.267585 112.642925 119.16881 112.881388 119.16881 113.13 
C 119.16881 113.378612 119.267585 113.617075 119.44338 113.79287 
C 119.619175 113.968665 119.857638 114.06744 120.10625 114.06744 
z
" clip-path="url(#pa7aecce22f)" style="fill: #009e73; stroke: #009e73; stroke-linejoin: miter"/>
   </g>
   <g id="patch_13">
    <path d="M 100.57625 60.678 
C 101.46415 60.678 102.315803 60.325234 102.943644 59.697394 
C 103.571484 59.069553 103.92425 58.2179 103.92425 57.33 
C 103.92425 56.4421 103.571484 55.590447 102.943644 54.962606 
C 102.315803 54.334766 101.46415 53.982 100.57625 53.982 
C 99.68835 53.982 98.836697 54.334766 98.208856 54.962606 
C 97.581016 55.590447 97.22825 56.4421 97.22825 57.33 
C 97.22825 58.2179 97.581016 59.069553 98.208856 59.697394 
C 98.836697 60.325234 99.68835 60.678 100.57625 60.678 
L 100.57625 60.678 
z
" clip-path="url(#pa7aecce22f)" style="fill: none; stroke: #009e73; stroke-width: 1.2; stroke-linejoin: miter"/>
   </g>
   <g id="patch_14">
    <path d="M 100.57625 58.26744 
C 100.824862 58.26744 101.063325 58.168665 101.23912 57.99287 
C 101.414915 57.817075 101.51369 57.578612 101.51369 57.33 
C 101.51369 57.081388 101.414915 56.842925 101.23912 56.66713 
C 101.063325 56.491335 100.824862 56.39256 100.57625 56.39256 
C 100.327638 56.39256 100.089175 56.491335 99.91338 56.66713 
C 99.737585 56.842925 99.63881 57.081388 99.63881 57.33 
C 99.63881 57.578612 99.737585 57.817075 99.91338 57.99287 
C 100.089175 58.168665 100.327638 58.26744 100.57625 58.26744 
z
" clip-path="url(#pa7aecce22f)" style="fill: #009e73; stroke: #009e73; stroke-linejoin: miter"/>
   </g>
   <g id="patch_15">
    <path d="M 64.30625 99.738 
C 65.19415 99.738 66.045803 99.385234 66.673644 98.757394 
C 67.301484 98.129553 67.65425 97.2779 67.65425 96.39 
C 67.65425 95.5021 67.301484 94.650447 66.673644 94.022606 
C 66.045803 93.394766 65.19415 93.042 64.30625 93.042 
C 63.41835 93.042 62.566697 93.394766 61.938856 94.022606 
C 61.311016 94.650447 60.95825 95.5021 60.95825 96.39 
C 60.95825 97.2779 61.311016 98.129553 61.938856 98.757394 
C 62.566697 99.385234 63.41835 99.738 64.30625 99.738 
L 64.30625 99.738 
z
" clip-path="url(#pa7aecce22f)" style="fill: none; stroke: #009e73; stroke-width: 1.2; stroke-linejoin: miter"/>
   </g>
   <g id="patch_16">
    <path d="M 64.30625 97.32744 
C 64.554862 97.32744 64.793325 97.228665 64.96912 97.05287 
C 65.144915 96.877075 65.24369 96.638612 65.24369 96.39 
C 65.24369 96.141388 65.144915 95.902925 64.96912 95.72713 
C 64.793325 95.551335 64.554862 95.45256 64.30625 95.45256 
C 64.057638 95.45256 63.819175 95.551335 63.64338 95.72713 
C 63.467585 95.902925 63.36881 96.141388 63.36881 96.39 
C 63.36881 96.638612 63.467585 96.877075 63.64338 97.05287 
C 63.819175 97.228665 64.057638 97.32744 64.30625 97.32744 
z
" clip-path="url(#pa7aecce22f)" style="fill: #009e73; stroke: #009e73; stroke-linejoin: miter"/>
   </g>
   <g id="patch_17">
    <path d="M 139.63625 96.948 
C 140.52415 96.948 141.375803 96.595234 142.003644 95.967394 
C 142.631484 95.339553 142.98425 94.4879 142.98425 93.6 
C 142.98425 92.7121 142.631484 91.860447 142.003644 91.232606 
C 141.375803 90.604766 140.52415 90.252 139.63625 90.252 
C 138.74835 90.252 137.896697 90.604766 137.268856 91.232606 
C 136.641016 91.860447 136.28825 92.7121 136.28825 93.6 
C 136.28825 94.4879 136.641016 95.339553 137.268856 95.967394 
C 137.896697 96.595234 138.74835 96.948 139.63625 96.948 
L 139.63625 96.948 
z
" clip-path="url(#pa7aecce22f)" style="fill: none; stroke: #009e73; stroke-width: 1.2; stroke-linejoin: miter"/>
   </g>
   <g id="patch_18">
    <path d="M 139.63625 94.53744 
C 139.884862 94.53744 140.123325 94.438665 140.29912 94.26287 
C 140.474915 94.087075 140.57369 93.848612 140.57369 93.6 
C 140.57369 93.351388 140.474915 93.112925 140.29912 92.93713 
C 140.123325 92.761335 139.884862 92.66256 139.63625 92.66256 
C 139.387638 92.66256 139.149175 92.761335 138.97338 92.93713 
C 138.797585 93.112925 138.69881 93.351388 138.69881 93.6 
C 138.69881 93.848612 138.797585 94.087075 138.97338 94.26287 
C 139.149175 94.438665 139.387638 94.53744 139.63625 94.53744 
z
" clip-path="url(#pa7aecce22f)" style="fill: #009e73; stroke: #009e73; stroke-linejoin: miter"/>
   </g>
   <g id="patch_19">
    <path d="M 100.57625 113.13 
C 106.495583 113.13 112.173273 110.778224 116.358873 106.592623 
C 120.544474 102.407023 122.89625 96.729333 122.89625 90.81 
C 122.89625 84.890667 120.544474 79.212977 116.358873 75.027377 
C 112.173273 70.841776 106.495583 68.49 100.57625 68.49 
C 94.656917 68.49 88.979227 70.841776 84.793627 75.027377 
C 80.608026 79.212977 78.25625 84.890667 78.25625 90.81 
C 78.25625 96.729333 80.608026 102.407023 84.793627 106.592623 
C 88.979227 110.778224 94.656917 113.13 100.57625 113.13 
L 100.57625 113.13 
z
" clip-path="url(#pa7aecce22f)" style="fill: none; stroke: #e69f00; stroke-width: 1.8; stroke-linejoin: miter"/>
   </g>
   <g id="patch_20">
    <path d="M 100.57625 132.66 
C 111.675 132.66 122.320668 128.25042 130.168669 120.402419 
C 138.01667 112.554418 142.42625 101.90875 142.42625 90.81 
C 142.42625 79.71125 138.01667 69.065582 130.168669 61.217581 
C 122.320668 53.36958 111.675 48.96 100.57625 48.96 
C 89.4775 48.96 78.831832 53.36958 70.983831 61.217581 
C 63.13583 69.065582 58.72625 79.71125 58.72625 90.81 
C 58.72625 101.90875 63.13583 112.554418 70.983831 120.402419 
C 78.831832 128.25042 89.4775 132.66 100.57625 132.66 
L 100.57625 132.66 
z
" clip-path="url(#pa7aecce22f)" style="fill: none; stroke: #e69f00; stroke-width: 1.8; stroke-linejoin: miter"/>
   </g>
   <g id="patch_21">
    <path d="M 100.57625 163.35 
C 119.814083 163.35 138.266574 155.706728 151.869776 142.103526 
C 165.472978 128.500324 173.11625 110.047833 173.11625 90.81 
C 173.11625 71.572167 165.472978 53.119676 151.869776 39.516474 
C 138.266574 25.913272 119.814083 18.27 100.57625 18.27 
C 81.338417 18.27 62.885926 25.913272 49.282724 39.516474 
C 35.679522 53.119676 28.03625 71.572167 28.03625 90.81 
C 28.03625 110.047833 35.679522 128.500324 49.282724 142.103526 
C 62.885926 155.706728 81.338417 163.35 100.57625 163.35 
L 100.57625 163.35 
z
" clip-path="url(#pa7aecce22f)" style="fill: none; stroke: #e69f00; stroke-width: 1.8; stroke-linejoin: miter"/>
   </g>
   <g id="text_1">
    <!-- $\mathbf{B}$ -->
    <g style="fill: #e69f00" transform="translate(166.00625 24.177188) scale(0.12 -0.12)">
     <defs>
      <path id="Cmb10-20" d="M 219 0 
L 219 325 
L 819 325 
L 819 4063 
L 219 4063 
L 219 4391 
L 2631 4391 
Q 2991 4391 3306 4270 
Q 3622 4150 3817 3898 
Q 4013 3647 4013 3278 
Q 4013 2888 3752 2636 
Q 3491 2384 3078 2297 
Q 3559 2238 3871 1952 
Q 4184 1666 4184 1197 
Q 4184 625 3789 312 
Q 3394 0 2809 0 
L 219 0 
z
M 1684 325 
L 2631 325 
Q 2838 325 2970 459 
Q 3103 594 3161 794 
Q 3219 994 3219 1197 
Q 3219 1384 3178 1606 
Q 3138 1828 3025 1992 
Q 2913 2156 2719 2156 
L 1684 2156 
L 1684 325 
z
M 1684 2413 
L 2450 2413 
Q 2766 2413 2922 2677 
Q 3078 2941 3078 3278 
Q 3078 3569 2978 3816 
Q 2878 4063 2631 4063 
L 1684 4063 
L 1684 2413 
z
" transform="scale(0.015625)"/>
     </defs>
     <use xlink:href="#Cmb10-20" transform="translate(0 0.390625)"/>
    </g>
   </g>
   <g id="patch_22">
    <path d="M 116.927313 75.576137 
Q 116.126744 74.798612 116.986373 75.633497 
" style="fill: none; stroke: #e69f00; stroke-width: 2.07; stroke-linecap: round"/>
    <path d="M 118.462384 79.855036 
L 116.986373 75.633497 
L 121.249211 76.985612 
z
" style="fill: #e69f00; stroke: #e69f00; stroke-width: 2.07; stroke-linecap: round"/>
   </g>
   <g id="patch_23">
    <path d="M 79.207806 84.266496 
Q 78.934734 85.348571 79.227951 84.186668 
" style="fill: none; stroke: #e69f00; stroke-width: 2.07; stroke-linecap: round"/>
    <path d="M 82.145906 80.797635 
L 79.227951 84.186668 
L 78.267498 79.818885 
z
" style="fill: #e69f00; stroke: #e69f00; stroke-width: 2.07; stroke-linecap: round"/>
   </g>
   <g id="patch_24">
    <path d="M 105.593631 112.587368 
Q 106.667272 112.282817 105.514426 112.609835 
" style="fill: none; stroke: #e69f00; stroke-width: 2.07; stroke-linecap: round"/>
    <path d="M 101.12046 111.777329 
L 105.514426 112.609835 
L 102.212041 115.625504 
z
" style="fill: #e69f00; stroke: #e69f00; stroke-width: 2.07; stroke-linecap: round"/>
   </g>
   <g id="patch_25">
    <path d="M 118.690094 53.066701 
Q 117.671449 52.610829 118.765242 53.100332 
" style="fill: none; stroke: #e69f00; stroke-width: 2.07; stroke-linecap: round"/>
    <path d="M 121.599323 56.55981 
L 118.765242 53.100332 
L 123.233273 52.908754 
z
" style="fill: #e69f00; stroke: #e69f00; stroke-width: 2.07; stroke-linecap: round"/>
   </g>
   <g id="patch_26">
    <path d="M 58.832672 93.9946 
Q 58.947198 95.104708 58.824223 93.912705 
" style="fill: none; stroke: #e69f00; stroke-width: 2.07; stroke-linecap: round"/>
    <path d="M 60.403179 89.72858 
L 58.824223 93.912705 
L 56.424297 90.139066 
z
" style="fill: #e69f00; stroke: #e69f00; stroke-width: 2.07; stroke-linecap: round"/>
   </g>
   <g id="patch_27">
    <path d="M 124.205984 125.368698 
Q 125.110103 124.714462 124.139284 125.416963 
" style="fill: none; stroke: #e69f00; stroke-width: 2.07; stroke-linecap: round"/>
    <path d="M 119.726248 126.14161 
L 124.139284 125.416963 
L 122.071181 129.38218 
z
" style="fill: #e69f00; stroke: #e69f00; stroke-width: 2.07; stroke-linecap: round"/>
   </g>
   <g id="patch_28">
    <path d="M 92.336568 18.730844 
Q 91.22987 18.874635 92.418212 18.720236 
" style="fill: none; stroke: #e69f00; stroke-width: 2.07; stroke-linecap: round"/>
    <path d="M 96.642561 20.188188 
L 92.418212 18.720236 
L 96.127183 16.221529 
z
" style="fill: #e69f00; stroke: #e69f00; stroke-width: 2.07; stroke-linecap: round"/>
   </g>
   <g id="patch_29">
    <path d="M 42.273711 133.985352 
Q 42.951586 134.871885 42.223702 133.91995 
" style="fill: none; stroke: #e69f00; stroke-width: 2.07; stroke-linecap: round"/>
    <path d="M 41.382811 129.527581 
L 42.223702 133.91995 
L 38.205273 131.957241 
z
" style="fill: #e69f00; stroke: #e69f00; stroke-width: 2.07; stroke-linecap: round"/>
   </g>
   <g id="patch_30">
    <path d="M 167.118471 119.713804 
Q 167.547294 118.68348 167.086835 119.789814 
" style="fill: none; stroke: #e69f00; stroke-width: 2.07; stroke-linecap: round"/>
    <path d="M 163.703378 122.714231 
L 167.086835 119.789814 
L 167.396295 124.25123 
z
" style="fill: #e69f00; stroke: #e69f00; stroke-width: 2.07; stroke-linecap: round"/>
   </g>
   <g id="text_2">
    <g id="patch_31">
     <path d="M 6.72 180.910313 
L 194.4325 180.910313 
Q 199.2325 180.910313 199.2325 176.110313 
L 199.2325 172.909688 
Q 199.2325 168.109688 194.4325 168.109688 
L 6.72 168.109688 
Q 1.92 168.109688 1.92 172.909688 
L 1.92 176.110313 
Q 1.92 180.910313 6.72 180.910313 
z
" style="fill: var(--muted)"/>
    </g>
    <!-- E out of page and growing: B circles round -->
    <g style="fill: var(--tagtext)" transform="translate(4.32 176.588438) scale(0.08 -0.08)">
     <defs>
      <path id="DejaVuSans-Bold-28" d="M 588 4666 
L 3834 4666 
L 3834 3756 
L 1791 3756 
L 1791 2888 
L 3713 2888 
L 3713 1978 
L 1791 1978 
L 1791 909 
L 3903 909 
L 3903 0 
L 588 0 
L 588 4666 
z
" transform="scale(0.015625)"/>
      <path id="DejaVuSans-Bold-3" transform="scale(0.015625)"/>
      <path id="DejaVuSans-Bold-52" d="M 2203 2784 
Q 1831 2784 1636 2517 
Q 1441 2250 1441 1747 
Q 1441 1244 1636 976 
Q 1831 709 2203 709 
Q 2569 709 2762 976 
Q 2956 1244 2956 1747 
Q 2956 2250 2762 2517 
Q 2569 2784 2203 2784 
z
M 2203 3584 
Q 3106 3584 3614 3096 
Q 4122 2609 4122 1747 
Q 4122 884 3614 396 
Q 3106 -91 2203 -91 
Q 1297 -91 786 396 
Q 275 884 275 1747 
Q 275 2609 786 3096 
Q 1297 3584 2203 3584 
z
" transform="scale(0.015625)"/>
      <path id="DejaVuSans-Bold-58" d="M 500 1363 
L 500 3500 
L 1625 3500 
L 1625 3150 
Q 1625 2866 1622 2436 
Q 1619 2006 1619 1863 
Q 1619 1441 1641 1255 
Q 1663 1069 1716 984 
Q 1784 875 1895 815 
Q 2006 756 2150 756 
Q 2500 756 2700 1025 
Q 2900 1294 2900 1772 
L 2900 3500 
L 4019 3500 
L 4019 0 
L 2900 0 
L 2900 506 
Q 2647 200 2364 54 
Q 2081 -91 1741 -91 
Q 1134 -91 817 281 
Q 500 653 500 1363 
z
" transform="scale(0.015625)"/>
      <path id="DejaVuSans-Bold-57" d="M 1759 4494 
L 1759 3500 
L 2913 3500 
L 2913 2700 
L 1759 2700 
L 1759 1216 
Q 1759 972 1856 886 
Q 1953 800 2241 800 
L 2816 800 
L 2816 0 
L 1856 0 
Q 1194 0 917 276 
Q 641 553 641 1216 
L 641 2700 
L 84 2700 
L 84 3500 
L 641 3500 
L 641 4494 
L 1759 4494 
z
" transform="scale(0.015625)"/>
      <path id="DejaVuSans-Bold-49" d="M 2841 4863 
L 2841 4128 
L 2222 4128 
Q 1984 4128 1890 4042 
Q 1797 3956 1797 3744 
L 1797 3500 
L 2753 3500 
L 2753 2700 
L 1797 2700 
L 1797 0 
L 678 0 
L 678 2700 
L 122 2700 
L 122 3500 
L 678 3500 
L 678 3744 
Q 678 4316 997 4589 
Q 1316 4863 1984 4863 
L 2841 4863 
z
" transform="scale(0.015625)"/>
      <path id="DejaVuSans-Bold-53" d="M 1656 506 
L 1656 -1331 
L 538 -1331 
L 538 3500 
L 1656 3500 
L 1656 2988 
Q 1888 3294 2169 3439 
Q 2450 3584 2816 3584 
Q 3463 3584 3878 3070 
Q 4294 2556 4294 1747 
Q 4294 938 3878 423 
Q 3463 -91 2816 -91 
Q 2450 -91 2169 54 
Q 1888 200 1656 506 
z
M 2400 2772 
Q 2041 2772 1848 2508 
Q 1656 2244 1656 1747 
Q 1656 1250 1848 986 
Q 2041 722 2400 722 
Q 2759 722 2948 984 
Q 3138 1247 3138 1747 
Q 3138 2247 2948 2509 
Q 2759 2772 2400 2772 
z
" transform="scale(0.015625)"/>
      <path id="DejaVuSans-Bold-44" d="M 2106 1575 
Q 1756 1575 1579 1456 
Q 1403 1338 1403 1106 
Q 1403 894 1545 773 
Q 1688 653 1941 653 
Q 2256 653 2472 879 
Q 2688 1106 2688 1447 
L 2688 1575 
L 2106 1575 
z
M 3816 1997 
L 3816 0 
L 2688 0 
L 2688 519 
Q 2463 200 2181 54 
Q 1900 -91 1497 -91 
Q 953 -91 614 226 
Q 275 544 275 1050 
Q 275 1666 698 1953 
Q 1122 2241 2028 2241 
L 2688 2241 
L 2688 2328 
Q 2688 2594 2478 2717 
Q 2269 2841 1825 2841 
Q 1466 2841 1156 2769 
Q 847 2697 581 2553 
L 581 3406 
Q 941 3494 1303 3539 
Q 1666 3584 2028 3584 
Q 2975 3584 3395 3211 
Q 3816 2838 3816 1997 
z
" transform="scale(0.015625)"/>
      <path id="DejaVuSans-Bold-4a" d="M 2919 594 
Q 2688 288 2409 144 
Q 2131 0 1766 0 
Q 1125 0 706 504 
Q 288 1009 288 1791 
Q 288 2575 706 3076 
Q 1125 3578 1766 3578 
Q 2131 3578 2409 3434 
Q 2688 3291 2919 2981 
L 2919 3500 
L 4044 3500 
L 4044 353 
Q 4044 -491 3511 -936 
Q 2978 -1381 1966 -1381 
Q 1638 -1381 1331 -1331 
Q 1025 -1281 716 -1178 
L 716 -306 
Q 1009 -475 1290 -558 
Q 1572 -641 1856 -641 
Q 2406 -641 2662 -400 
Q 2919 -159 2919 353 
L 2919 594 
z
M 2181 2772 
Q 1834 2772 1640 2515 
Q 1447 2259 1447 1791 
Q 1447 1309 1634 1061 
Q 1822 813 2181 813 
Q 2531 813 2725 1069 
Q 2919 1325 2919 1791 
Q 2919 2259 2725 2515 
Q 2531 2772 2181 2772 
z
" transform="scale(0.015625)"/>
      <path id="DejaVuSans-Bold-48" d="M 4031 1759 
L 4031 1441 
L 1416 1441 
Q 1456 1047 1700 850 
Q 1944 653 2381 653 
Q 2734 653 3104 758 
Q 3475 863 3866 1075 
L 3866 213 
Q 3469 63 3072 -14 
Q 2675 -91 2278 -91 
Q 1328 -91 801 392 
Q 275 875 275 1747 
Q 275 2603 792 3093 
Q 1309 3584 2216 3584 
Q 3041 3584 3536 3087 
Q 4031 2591 4031 1759 
z
M 2881 2131 
Q 2881 2450 2695 2645 
Q 2509 2841 2209 2841 
Q 1884 2841 1681 2658 
Q 1478 2475 1428 2131 
L 2881 2131 
z
" transform="scale(0.015625)"/>
      <path id="DejaVuSans-Bold-51" d="M 4056 2131 
L 4056 0 
L 2931 0 
L 2931 347 
L 2931 1631 
Q 2931 2084 2911 2256 
Q 2891 2428 2841 2509 
Q 2775 2619 2662 2680 
Q 2550 2741 2406 2741 
Q 2056 2741 1856 2470 
Q 1656 2200 1656 1722 
L 1656 0 
L 538 0 
L 538 3500 
L 1656 3500 
L 1656 2988 
Q 1909 3294 2193 3439 
Q 2478 3584 2822 3584 
Q 3428 3584 3742 3212 
Q 4056 2841 4056 2131 
z
" transform="scale(0.015625)"/>
      <path id="DejaVuSans-Bold-47" d="M 2919 2988 
L 2919 4863 
L 4044 4863 
L 4044 0 
L 2919 0 
L 2919 506 
Q 2688 197 2409 53 
Q 2131 -91 1766 -91 
Q 1119 -91 703 423 
Q 288 938 288 1747 
Q 288 2556 703 3070 
Q 1119 3584 1766 3584 
Q 2128 3584 2408 3439 
Q 2688 3294 2919 2988 
z
M 2181 722 
Q 2541 722 2730 984 
Q 2919 1247 2919 1747 
Q 2919 2247 2730 2509 
Q 2541 2772 2181 2772 
Q 1825 2772 1636 2509 
Q 1447 2247 1447 1747 
Q 1447 1247 1636 984 
Q 1825 722 2181 722 
z
" transform="scale(0.015625)"/>
      <path id="DejaVuSans-Bold-55" d="M 3138 2547 
Q 2991 2616 2845 2648 
Q 2700 2681 2553 2681 
Q 2122 2681 1889 2404 
Q 1656 2128 1656 1613 
L 1656 0 
L 538 0 
L 538 3500 
L 1656 3500 
L 1656 2925 
Q 1872 3269 2151 3426 
Q 2431 3584 2822 3584 
Q 2878 3584 2943 3579 
Q 3009 3575 3134 3559 
L 3138 2547 
z
" transform="scale(0.015625)"/>
      <path id="DejaVuSans-Bold-5a" d="M 225 3500 
L 1313 3500 
L 1900 1088 
L 2491 3500 
L 3425 3500 
L 4013 1113 
L 4603 3500 
L 5691 3500 
L 4769 0 
L 3547 0 
L 2956 2406 
L 2369 0 
L 1147 0 
L 225 3500 
z
" transform="scale(0.015625)"/>
      <path id="DejaVuSans-Bold-4c" d="M 538 3500 
L 1656 3500 
L 1656 0 
L 538 0 
L 538 3500 
z
M 538 4863 
L 1656 4863 
L 1656 3950 
L 538 3950 
L 538 4863 
z
" transform="scale(0.015625)"/>
      <path id="DejaVuSans-Bold-1d" d="M 716 3500 
L 1844 3500 
L 1844 2291 
L 716 2291 
L 716 3500 
z
M 716 1209 
L 1844 1209 
L 1844 0 
L 716 0 
L 716 1209 
z
" transform="scale(0.015625)"/>
      <path id="DejaVuSans-Bold-25" d="M 2456 2859 
Q 2741 2859 2887 2984 
Q 3034 3109 3034 3353 
Q 3034 3594 2887 3720 
Q 2741 3847 2456 3847 
L 1791 3847 
L 1791 2859 
L 2456 2859 
z
M 2497 819 
Q 2859 819 3042 972 
Q 3225 1125 3225 1434 
Q 3225 1738 3044 1889 
Q 2863 2041 2497 2041 
L 1791 2041 
L 1791 819 
L 2497 819 
z
M 3616 2497 
Q 4003 2384 4215 2081 
Q 4428 1778 4428 1338 
Q 4428 663 3972 331 
Q 3516 0 2584 0 
L 588 0 
L 588 4666 
L 2394 4666 
Q 3366 4666 3802 4372 
Q 4238 4078 4238 3431 
Q 4238 3091 4078 2852 
Q 3919 2613 3616 2497 
z
" transform="scale(0.015625)"/>
      <path id="DejaVuSans-Bold-46" d="M 3366 3391 
L 3366 2478 
Q 3138 2634 2908 2709 
Q 2678 2784 2431 2784 
Q 1963 2784 1702 2511 
Q 1441 2238 1441 1747 
Q 1441 1256 1702 982 
Q 1963 709 2431 709 
Q 2694 709 2930 787 
Q 3166 866 3366 1019 
L 3366 103 
Q 3103 6 2833 -42 
Q 2563 -91 2291 -91 
Q 1344 -91 809 395 
Q 275 881 275 1747 
Q 275 2613 809 3098 
Q 1344 3584 2291 3584 
Q 2566 3584 2833 3536 
Q 3100 3488 3366 3391 
z
" transform="scale(0.015625)"/>
      <path id="DejaVuSans-Bold-4f" d="M 538 4863 
L 1656 4863 
L 1656 0 
L 538 0 
L 538 4863 
z
" transform="scale(0.015625)"/>
      <path id="DejaVuSans-Bold-56" d="M 3272 3391 
L 3272 2541 
Q 2913 2691 2578 2766 
Q 2244 2841 1947 2841 
Q 1628 2841 1473 2761 
Q 1319 2681 1319 2516 
Q 1319 2381 1436 2309 
Q 1553 2238 1856 2203 
L 2053 2175 
Q 2913 2066 3209 1816 
Q 3506 1566 3506 1031 
Q 3506 472 3093 190 
Q 2681 -91 1863 -91 
Q 1516 -91 1145 -36 
Q 775 19 384 128 
L 384 978 
Q 719 816 1070 734 
Q 1422 653 1784 653 
Q 2113 653 2278 743 
Q 2444 834 2444 1013 
Q 2444 1163 2330 1236 
Q 2216 1309 1875 1350 
L 1678 1375 
Q 931 1469 631 1722 
Q 331 1975 331 2491 
Q 331 3047 712 3315 
Q 1094 3584 1881 3584 
Q 2191 3584 2531 3537 
Q 2872 3491 3272 3391 
z
" transform="scale(0.015625)"/>
     </defs>
     <use xlink:href="#DejaVuSans-Bold-28"/>
     <use xlink:href="#DejaVuSans-Bold-3" transform="translate(68.3125 0)"/>
     <use xlink:href="#DejaVuSans-Bold-52" transform="translate(103.125 0)"/>
     <use xlink:href="#DejaVuSans-Bold-58" transform="translate(171.828125 0)"/>
     <use xlink:href="#DejaVuSans-Bold-57" transform="translate(243.015625 0)"/>
     <use xlink:href="#DejaVuSans-Bold-3" transform="translate(290.8125 0)"/>
     <use xlink:href="#DejaVuSans-Bold-52" transform="translate(325.625 0)"/>
     <use xlink:href="#DejaVuSans-Bold-49" transform="translate(394.328125 0)"/>
     <use xlink:href="#DejaVuSans-Bold-3" transform="translate(437.828125 0)"/>
     <use xlink:href="#DejaVuSans-Bold-53" transform="translate(472.640625 0)"/>
     <use xlink:href="#DejaVuSans-Bold-44" transform="translate(544.21875 0)"/>
     <use xlink:href="#DejaVuSans-Bold-4a" transform="translate(611.703125 0)"/>
     <use xlink:href="#DejaVuSans-Bold-48" transform="translate(683.28125 0)"/>
     <use xlink:href="#DejaVuSans-Bold-3" transform="translate(751.109375 0)"/>
     <use xlink:href="#DejaVuSans-Bold-44" transform="translate(785.921875 0)"/>
     <use xlink:href="#DejaVuSans-Bold-51" transform="translate(853.40625 0)"/>
     <use xlink:href="#DejaVuSans-Bold-47" transform="translate(924.59375 0)"/>
     <use xlink:href="#DejaVuSans-Bold-3" transform="translate(996.171875 0)"/>
     <use xlink:href="#DejaVuSans-Bold-4a" transform="translate(1030.984375 0)"/>
     <use xlink:href="#DejaVuSans-Bold-55" transform="translate(1102.5625 0)"/>
     <use xlink:href="#DejaVuSans-Bold-52" transform="translate(1151.875 0)"/>
     <use xlink:href="#DejaVuSans-Bold-5a" transform="translate(1220.578125 0)"/>
     <use xlink:href="#DejaVuSans-Bold-4c" transform="translate(1312.96875 0)"/>
     <use xlink:href="#DejaVuSans-Bold-51" transform="translate(1347.25 0)"/>
     <use xlink:href="#DejaVuSans-Bold-4a" transform="translate(1418.4375 0)"/>
     <use xlink:href="#DejaVuSans-Bold-1d" transform="translate(1490.015625 0)"/>
     <use xlink:href="#DejaVuSans-Bold-3" transform="translate(1530 0)"/>
     <use xlink:href="#DejaVuSans-Bold-25" transform="translate(1564.8125 0)"/>
     <use xlink:href="#DejaVuSans-Bold-3" transform="translate(1641.03125 0)"/>
     <use xlink:href="#DejaVuSans-Bold-46" transform="translate(1675.84375 0)"/>
     <use xlink:href="#DejaVuSans-Bold-4c" transform="translate(1735.125 0)"/>
     <use xlink:href="#DejaVuSans-Bold-55" transform="translate(1769.40625 0)"/>
     <use xlink:href="#DejaVuSans-Bold-46" transform="translate(1818.71875 0)"/>
     <use xlink:href="#DejaVuSans-Bold-4f" transform="translate(1878 0)"/>
     <use xlink:href="#DejaVuSans-Bold-48" transform="translate(1912.28125 0)"/>
     <use xlink:href="#DejaVuSans-Bold-56" transform="translate(1980.109375 0)"/>
     <use xlink:href="#DejaVuSans-Bold-3" transform="translate(2039.625 0)"/>
     <use xlink:href="#DejaVuSans-Bold-55" transform="translate(2074.4375 0)"/>
     <use xlink:href="#DejaVuSans-Bold-52" transform="translate(2123.75 0)"/>
     <use xlink:href="#DejaVuSans-Bold-58" transform="translate(2192.453125 0)"/>
     <use xlink:href="#DejaVuSans-Bold-51" transform="translate(2263.640625 0)"/>
     <use xlink:href="#DejaVuSans-Bold-47" transform="translate(2334.828125 0)"/>
    </g>
   </g>
  </g>
 </g>
 <defs>
  <clipPath id="pa7aecce22f">
   <rect x="11.29625" y="4.32" width="178.56" height="175.77"/>
  </clipPath>
 </defs>
</svg>
