<?xml version="1.0" encoding="utf-8" standalone="no"?>
<!DOCTYPE svg PUBLIC "-//W3C//DTD SVG 1.1//EN"
  "http://www.w3.org/Graphics/SVG/1.1/DTD/svg11.dtd">
<svg xmlns:xlink="http://www.w3.org/1999/xlink" width="332.28pt" height="122.111341pt" viewBox="0 0 332.28 122.111341" xmlns="http://www.w3.org/2000/svg" version="1.1">
<style>
  svg { --ink: #111827; --muted: #475569; --tagtext: #ffffff; }
  @media (prefers-color-scheme: dark) { svg { --ink: #f3f4f6; --muted: #aab2bd; --tagtext: #111827; } }
</style>

 <metadata>
  <rdf:RDF xmlns:dc="http://purl.org/dc/elements/1.1/" xmlns:cc="http://creativecommons.org/ns#" xmlns:rdf="http://www.w3.org/1999/02/22-rdf-syntax-ns#">
   <cc:Work>
    <dc:type rdf:resource="http://purl.org/dc/dcmitype/StillImage"/>
    <dc:date>2026-09-22T13:51:32.726926</dc:date>
    <dc:format>image/svg+xml</dc:format>
    <dc:creator>
     <cc:Agent>
      <dc:title>Matplotlib v3.11.1, https://matplotlib.org/</dc:title>
     </cc:Agent>
    </dc:creator>
   </cc:Work>
  </rdf:RDF>
 </metadata>
 <defs>
  <style type="text/css">*{stroke-linejoin: round; stroke-linecap: butt}</style>
 </defs>
 <g id="figure_1">
  <g id="patch_1">
   <path d="M 0 122.111341 
L 332.28 122.111341 
L 332.28 0 
L 0 0 
L 0 122.111341 
z
" style="fill: none"/>
  </g>
  <g id="axes_1">
   <g id="line2d_1">
    <path d="M 9.253537 78.196301 
L 10.418744 77.662085 
L 11.583951 77.377427 
L 12.749158 77.365041 
L 13.914365 77.625914 
L 15.079572 78.139232 
L 16.244779 78.864037 
L 17.99259 80.217778 
L 20.905608 82.571691 
L 22.070815 83.327851 
L 23.236022 83.881505 
L 24.401229 84.188475 
L 25.566436 84.224271 
L 26.731644 83.986034 
L 27.896851 83.492775 
L 29.062058 82.783849 
L 30.809869 81.443438 
L 34.30549 78.672875 
L 35.470697 77.99432 
L 36.635904 77.538814 
L 37.801111 77.342703 
L 38.966318 77.421634 
L 40.131526 77.769308 
L 41.296733 78.357986 
L 43.044543 79.585775 
L 47.705372 83.212533 
L 48.870579 83.804093 
L 50.035786 84.155147 
L 51.200993 84.237685 
L 52.366201 84.04512 
L 53.531408 83.592819 
L 54.696615 82.916869 
L 56.444425 81.605425 
L 59.940047 78.806261 
L 61.105254 78.094854 
L 62.270461 77.598475 
L 63.435668 77.35673 
L 64.600875 77.388908 
L 65.766083 77.692441 
L 66.93129 78.243111 
L 68.6791 79.431826 
L 73.339929 83.091631 
L 74.505136 83.719735 
L 75.670343 84.114063 
L 76.83555 84.243153 
L 78.000757 84.096705 
L 79.165965 83.686403 
L 80.331172 83.044986 
L 82.078982 81.765533 
L 86.157207 78.550461 
L 87.322415 77.904623 
L 88.487622 77.488992 
L 89.652829 77.336731 
L 90.818036 77.459988 
L 91.983243 77.848929 
L 93.14845 78.47252 
L 94.896261 79.734868 
L 98.974486 82.965425 
L 100.139693 83.628625 
L 101.3049 84.065319 
L 102.470107 84.240664 
L 103.635314 84.140669 
L 104.800522 83.773313 
L 105.965729 83.167907 
L 107.713539 81.923392 
L 111.791764 78.67921 
L 112.956971 77.999031 
L 114.122179 77.541526 
L 115.287386 77.343198 
L 116.452593 77.419873 
L 117.6178 77.765433 
L 118.783007 78.352305 
L 120.530818 79.57827 
L 125.191646 83.206817 
L 125.191646 83.206817 
" clip-path="url(#p274fae5690)" style="fill: none; stroke: #e69f00; stroke-width: 1.4; stroke-linecap: square"/>
   </g>
   <g id="line2d_2">
    <path d="M 9.253537 55.995386 
L 10.418744 55.46117 
L 11.583951 55.176513 
L 12.749158 55.164126 
L 13.914365 55.425 
L 15.079572 55.938317 
L 16.244779 56.663123 
L 17.99259 58.016863 
L 20.905608 60.370776 
L 22.070815 61.126937 
L 23.236022 61.68059 
L 24.401229 61.987561 
L 25.566436 62.023356 
L 26.731644 61.78512 
L 27.896851 61.29186 
L 29.062058 60.582935 
L 30.809869 59.242524 
L 34.30549 56.47196 
L 35.470697 55.793405 
L 36.635904 55.3379 
L 37.801111 55.141789 
L 38.966318 55.220719 
L 40.131526 55.568394 
L 41.296733 56.157072 
L 43.044543 57.38486 
L 47.705372 61.011618 
L 48.870579 61.603178 
L 50.035786 61.954232 
L 51.200993 62.03677 
L 52.366201 61.844206 
L 53.531408 61.391904 
L 54.696615 60.715954 
L 56.444425 59.404511 
L 59.940047 56.605346 
L 61.105254 55.893939 
L 62.270461 55.39756 
L 63.435668 55.155816 
L 64.600875 55.187993 
L 65.766083 55.491526 
L 66.93129 56.042196 
L 68.6791 57.230911 
L 73.339929 60.890717 
L 74.505136 61.51882 
L 75.670343 61.913149 
L 76.83555 62.042239 
L 78.000757 61.89579 
L 79.165965 61.485489 
L 80.331172 60.844072 
L 82.078982 59.564618 
L 86.157207 56.349546 
L 87.322415 55.703708 
L 88.487622 55.288078 
L 89.652829 55.135816 
L 90.818036 55.259073 
L 91.983243 55.648014 
L 93.14845 56.271605 
L 94.896261 57.533953 
L 98.974486 60.764511 
L 100.139693 61.42771 
L 101.3049 61.864404 
L 102.470107 62.039749 
L 103.635314 61.939754 
L 104.800522 61.572398 
L 105.965729 60.966992 
L 107.713539 59.722477 
L 111.791764 56.478296 
L 112.956971 55.798116 
L 114.122179 55.340611 
L 115.287386 55.142284 
L 116.452593 55.218959 
L 117.6178 55.564518 
L 118.783007 56.15139 
L 120.530818 57.377355 
L 125.191646 61.005903 
L 125.191646 61.005903 
" clip-path="url(#p274fae5690)" style="fill: none; stroke: #e69f00; stroke-width: 1.4; stroke-linecap: square"/>
   </g>
   <g id="line2d_3">
    <path d="M 9.253537 33.794472 
L 10.418744 33.260256 
L 11.583951 32.975598 
L 12.749158 32.963212 
L 13.914365 33.224085 
L 15.079572 33.737403 
L 16.244779 34.462208 
L 17.99259 35.815948 
L 20.905608 38.169861 
L 22.070815 38.926022 
L 23.236022 39.479675 
L 24.401229 39.786646 
L 25.566436 39.822441 
L 26.731644 39.584205 
L 27.896851 39.090946 
L 29.062058 38.38202 
L 30.809869 37.041609 
L 34.30549 34.271046 
L 35.470697 33.59249 
L 36.635904 33.136985 
L 37.801111 32.940874 
L 38.966318 33.019805 
L 40.131526 33.367479 
L 41.296733 33.956157 
L 43.044543 35.183946 
L 47.705372 38.810704 
L 48.870579 39.402264 
L 50.035786 39.753318 
L 51.200993 39.835855 
L 52.366201 39.643291 
L 53.531408 39.19099 
L 54.696615 38.515039 
L 56.444425 37.203596 
L 59.940047 34.404431 
L 61.105254 33.693024 
L 62.270461 33.196646 
L 63.435668 32.954901 
L 64.600875 32.987079 
L 65.766083 33.290612 
L 66.93129 33.841281 
L 68.6791 35.029997 
L 73.339929 38.689802 
L 74.505136 39.317906 
L 75.670343 39.712234 
L 76.83555 39.841324 
L 78.000757 39.694876 
L 79.165965 39.284574 
L 80.331172 38.643157 
L 82.078982 37.363704 
L 86.157207 34.148631 
L 87.322415 33.502794 
L 88.487622 33.087163 
L 89.652829 32.934902 
L 90.818036 33.058159 
L 91.983243 33.447099 
L 93.14845 34.070691 
L 94.896261 35.333039 
L 98.974486 38.563596 
L 100.139693 39.226796 
L 101.3049 39.66349 
L 102.470107 39.838834 
L 103.635314 39.73884 
L 104.800522 39.371484 
L 105.965729 38.766078 
L 107.713539 37.521563 
L 111.791764 34.277381 
L 112.956971 33.597202 
L 114.122179 33.139697 
L 115.287386 32.941369 
L 116.452593 33.018044 
L 117.6178 33.363603 
L 118.783007 33.950475 
L 120.530818 35.17644 
L 125.191646 38.804988 
L 125.191646 38.804988 
" clip-path="url(#p274fae5690)" style="fill: none; stroke: #e69f00; stroke-width: 1.4; stroke-linecap: square"/>
   </g>
   <g id="patch_2">
    <path d="M 127.658415 102.990732 
L 142.459024 102.990732 
L 142.459024 14.187073 
L 127.658415 14.187073 
z
" clip-path="url(#p274fae5690)" style="fill: var(--ink); stroke: var(--ink); stroke-width: 1.4; stroke-linejoin: miter"/>
   </g>
   <g id="patch_3">
    <path d="M 110.391037 80.789817 
Q 116.557957 80.789817 120.924843 80.789817 
" style="fill: none; stroke: #e69f00; stroke-width: 1.61; stroke-linecap: round"/>
    <path d="M 117.324843 78.989817 
L 120.924843 80.789817 
L 117.324843 82.589817 
z
" style="fill: #e69f00; stroke: #e69f00; stroke-width: 1.61; stroke-linecap: round"/>
   </g>
   <g id="patch_4">
    <path d="M 110.391037 58.588902 
Q 116.557957 58.588902 120.924843 58.588902 
" style="fill: none; stroke: #e69f00; stroke-width: 1.61; stroke-linecap: round"/>
    <path d="M 117.324843 56.788902 
L 120.924843 58.588902 
L 117.324843 60.388902 
z
" style="fill: #e69f00; stroke: #e69f00; stroke-width: 1.61; stroke-linecap: round"/>
   </g>
   <g id="patch_5">
    <path d="M 110.391037 36.387988 
Q 116.557957 36.387988 120.924843 36.387988 
" style="fill: none; stroke: #e69f00; stroke-width: 1.61; stroke-linecap: round"/>
    <path d="M 117.324843 34.587988 
L 120.924843 36.387988 
L 117.324843 38.187988 
z
" style="fill: #e69f00; stroke: #e69f00; stroke-width: 1.61; stroke-linecap: round"/>
   </g>
   <g id="patch_6">
    <path d="M 147.392561 58.588902 
Q 153.559482 58.588902 156.640629 58.588902 
" style="fill: none; stroke: var(--ink); stroke-width: 2.76; stroke-linecap: round"/>
    <path d="M 151.840629 56.188902 
L 156.640629 58.588902 
L 151.840629 60.988902 
z
" style="fill: var(--ink); stroke: var(--ink); stroke-width: 2.76; stroke-linecap: round"/>
   </g>
   <g id="text_1">
    <g id="patch_7">
     <path d="M 44.916937 119.658137 
L 121.596234 119.658137 
Q 126.696234 119.658137 126.696234 114.558137 
L 126.696234 111.157473 
Q 126.696234 106.057473 121.596234 106.057473 
L 44.916937 106.057473 
Q 39.816937 106.057473 39.816937 111.157473 
L 39.816937 114.558137 
Q 39.816937 119.658137 44.916937 119.658137 
z
" style="fill: var(--muted)"/>
    </g>
    <!-- absorbed: P = I/c -->
    <g style="fill: var(--tagtext)" transform="translate(42.366937 115.066145) scale(0.085 -0.085)">
     <defs>
      <path id="DejaVuSans-Bold-44" d="M 2106 1575 
Q 1756 1575 1579 1456 
Q 1403 1338 1403 1106 
Q 1403 894 1545 773 
Q 1688 653 1941 653 
Q 2256 653 2472 879 
Q 2688 1106 2688 1447 
L 2688 1575 
L 2106 1575 
z
M 3816 1997 
L 3816 0 
L 2688 0 
L 2688 519 
Q 2463 200 2181 54 
Q 1900 -91 1497 -91 
Q 953 -91 614 226 
Q 275 544 275 1050 
Q 275 1666 698 1953 
Q 1122 2241 2028 2241 
L 2688 2241 
L 2688 2328 
Q 2688 2594 2478 2717 
Q 2269 2841 1825 2841 
Q 1466 2841 1156 2769 
Q 847 2697 581 2553 
L 581 3406 
Q 941 3494 1303 3539 
Q 1666 3584 2028 3584 
Q 2975 3584 3395 3211 
Q 3816 2838 3816 1997 
z
" transform="scale(0.015625)"/>
      <path id="DejaVuSans-Bold-45" d="M 2400 722 
Q 2759 722 2948 984 
Q 3138 1247 3138 1747 
Q 3138 2247 2948 2509 
Q 2759 2772 2400 2772 
Q 2041 2772 1848 2508 
Q 1656 2244 1656 1747 
Q 1656 1250 1848 986 
Q 2041 722 2400 722 
z
M 1656 2988 
Q 1888 3294 2169 3439 
Q 2450 3584 2816 3584 
Q 3463 3584 3878 3070 
Q 4294 2556 4294 1747 
Q 4294 938 3878 423 
Q 3463 -91 2816 -91 
Q 2450 -91 2169 54 
Q 1888 200 1656 506 
L 1656 0 
L 538 0 
L 538 4863 
L 1656 4863 
L 1656 2988 
z
" transform="scale(0.015625)"/>
      <path id="DejaVuSans-Bold-56" d="M 3272 3391 
L 3272 2541 
Q 2913 2691 2578 2766 
Q 2244 2841 1947 2841 
Q 1628 2841 1473 2761 
Q 1319 2681 1319 2516 
Q 1319 2381 1436 2309 
Q 1553 2238 1856 2203 
L 2053 2175 
Q 2913 2066 3209 1816 
Q 3506 1566 3506 1031 
Q 3506 472 3093 190 
Q 2681 -91 1863 -91 
Q 1516 -91 1145 -36 
Q 775 19 384 128 
L 384 978 
Q 719 816 1070 734 
Q 1422 653 1784 653 
Q 2113 653 2278 743 
Q 2444 834 2444 1013 
Q 2444 1163 2330 1236 
Q 2216 1309 1875 1350 
L 1678 1375 
Q 931 1469 631 1722 
Q 331 1975 331 2491 
Q 331 3047 712 3315 
Q 1094 3584 1881 3584 
Q 2191 3584 2531 3537 
Q 2872 3491 3272 3391 
z
" transform="scale(0.015625)"/>
      <path id="DejaVuSans-Bold-52" d="M 2203 2784 
Q 1831 2784 1636 2517 
Q 1441 2250 1441 1747 
Q 1441 1244 1636 976 
Q 1831 709 2203 709 
Q 2569 709 2762 976 
Q 2956 1244 2956 1747 
Q 2956 2250 2762 2517 
Q 2569 2784 2203 2784 
z
M 2203 3584 
Q 3106 3584 3614 3096 
Q 4122 2609 4122 1747 
Q 4122 884 3614 396 
Q 3106 -91 2203 -91 
Q 1297 -91 786 396 
Q 275 884 275 1747 
Q 275 2609 786 3096 
Q 1297 3584 2203 3584 
z
" transform="scale(0.015625)"/>
      <path id="DejaVuSans-Bold-55" d="M 3138 2547 
Q 2991 2616 2845 2648 
Q 2700 2681 2553 2681 
Q 2122 2681 1889 2404 
Q 1656 2128 1656 1613 
L 1656 0 
L 538 0 
L 538 3500 
L 1656 3500 
L 1656 2925 
Q 1872 3269 2151 3426 
Q 2431 3584 2822 3584 
Q 2878 3584 2943 3579 
Q 3009 3575 3134 3559 
L 3138 2547 
z
" transform="scale(0.015625)"/>
      <path id="DejaVuSans-Bold-48" d="M 4031 1759 
L 4031 1441 
L 1416 1441 
Q 1456 1047 1700 850 
Q 1944 653 2381 653 
Q 2734 653 3104 758 
Q 3475 863 3866 1075 
L 3866 213 
Q 3469 63 3072 -14 
Q 2675 -91 2278 -91 
Q 1328 -91 801 392 
Q 275 875 275 1747 
Q 275 2603 792 3093 
Q 1309 3584 2216 3584 
Q 3041 3584 3536 3087 
Q 4031 2591 4031 1759 
z
M 2881 2131 
Q 2881 2450 2695 2645 
Q 2509 2841 2209 2841 
Q 1884 2841 1681 2658 
Q 1478 2475 1428 2131 
L 2881 2131 
z
" transform="scale(0.015625)"/>
      <path id="DejaVuSans-Bold-47" d="M 2919 2988 
L 2919 4863 
L 4044 4863 
L 4044 0 
L 2919 0 
L 2919 506 
Q 2688 197 2409 53 
Q 2131 -91 1766 -91 
Q 1119 -91 703 423 
Q 288 938 288 1747 
Q 288 2556 703 3070 
Q 1119 3584 1766 3584 
Q 2128 3584 2408 3439 
Q 2688 3294 2919 2988 
z
M 2181 722 
Q 2541 722 2730 984 
Q 2919 1247 2919 1747 
Q 2919 2247 2730 2509 
Q 2541 2772 2181 2772 
Q 1825 2772 1636 2509 
Q 1447 2247 1447 1747 
Q 1447 1247 1636 984 
Q 1825 722 2181 722 
z
" transform="scale(0.015625)"/>
      <path id="DejaVuSans-Bold-1d" d="M 716 3500 
L 1844 3500 
L 1844 2291 
L 716 2291 
L 716 3500 
z
M 716 1209 
L 1844 1209 
L 1844 0 
L 716 0 
L 716 1209 
z
" transform="scale(0.015625)"/>
      <path id="DejaVuSans-Bold-3" transform="scale(0.015625)"/>
      <path id="DejaVuSans-Bold-33" d="M 588 4666 
L 2584 4666 
Q 3475 4666 3951 4270 
Q 4428 3875 4428 3144 
Q 4428 2409 3951 2014 
Q 3475 1619 2584 1619 
L 1791 1619 
L 1791 0 
L 588 0 
L 588 4666 
z
M 1791 3794 
L 1791 2491 
L 2456 2491 
Q 2806 2491 2997 2661 
Q 3188 2831 3188 3144 
Q 3188 3456 2997 3625 
Q 2806 3794 2456 3794 
L 1791 3794 
z
" transform="scale(0.015625)"/>
      <path id="DejaVuSans-Bold-20" d="M 678 3084 
L 4684 3084 
L 4684 2350 
L 678 2350 
L 678 3084 
z
M 678 1663 
L 4684 1663 
L 4684 922 
L 678 922 
L 678 1663 
z
" transform="scale(0.015625)"/>
      <path id="DejaVuSans-Bold-2c" d="M 588 4666 
L 1791 4666 
L 1791 0 
L 588 0 
L 588 4666 
z
" transform="scale(0.015625)"/>
      <path id="DejaVuSans-Bold-12" d="M 1644 4666 
L 2338 4666 
L 691 -594 
L 0 -594 
L 1644 4666 
z
" transform="scale(0.015625)"/>
      <path id="DejaVuSans-Bold-46" d="M 3366 3391 
L 3366 2478 
Q 3138 2634 2908 2709 
Q 2678 2784 2431 2784 
Q 1963 2784 1702 2511 
Q 1441 2238 1441 1747 
Q 1441 1256 1702 982 
Q 1963 709 2431 709 
Q 2694 709 2930 787 
Q 3166 866 3366 1019 
L 3366 103 
Q 3103 6 2833 -42 
Q 2563 -91 2291 -91 
Q 1344 -91 809 395 
Q 275 881 275 1747 
Q 275 2613 809 3098 
Q 1344 3584 2291 3584 
Q 2566 3584 2833 3536 
Q 3100 3488 3366 3391 
z
" transform="scale(0.015625)"/>
     </defs>
     <use xlink:href="#DejaVuSans-Bold-44"/>
     <use xlink:href="#DejaVuSans-Bold-45" transform="translate(67.484375 0)"/>
     <use xlink:href="#DejaVuSans-Bold-56" transform="translate(139.0625 0)"/>
     <use xlink:href="#DejaVuSans-Bold-52" transform="translate(198.578125 0)"/>
     <use xlink:href="#DejaVuSans-Bold-55" transform="translate(267.28125 0)"/>
     <use xlink:href="#DejaVuSans-Bold-45" transform="translate(316.59375 0)"/>
     <use xlink:href="#DejaVuSans-Bold-48" transform="translate(388.171875 0)"/>
     <use xlink:href="#DejaVuSans-Bold-47" transform="translate(456 0)"/>
     <use xlink:href="#DejaVuSans-Bold-1d" transform="translate(527.578125 0)"/>
     <use xlink:href="#DejaVuSans-Bold-3" transform="translate(567.5625 0)"/>
     <use xlink:href="#DejaVuSans-Bold-33" transform="translate(602.375 0)"/>
     <use xlink:href="#DejaVuSans-Bold-3" transform="translate(675.671875 0)"/>
     <use xlink:href="#DejaVuSans-Bold-20" transform="translate(710.484375 0)"/>
     <use xlink:href="#DejaVuSans-Bold-3" transform="translate(794.28125 0)"/>
     <use xlink:href="#DejaVuSans-Bold-2c" transform="translate(829.09375 0)"/>
     <use xlink:href="#DejaVuSans-Bold-12" transform="translate(866.296875 0)"/>
     <use xlink:href="#DejaVuSans-Bold-46" transform="translate(902.828125 0)"/>
    </g>
   </g>
  </g>
  <g id="axes_2">
   <g id="line2d_4">
    <path d="M 175.020366 78.196301 
L 176.185573 77.662085 
L 177.35078 77.377427 
L 178.515987 77.365041 
L 179.681194 77.625914 
L 180.846402 78.139232 
L 182.011609 78.864037 
L 183.759419 80.217778 
L 186.672437 82.571691 
L 187.837644 83.327851 
L 189.002851 83.881505 
L 190.168059 84.188475 
L 191.333266 84.224271 
L 192.498473 83.986034 
L 193.66368 83.492775 
L 194.828887 82.783849 
L 196.576698 81.443438 
L 200.072319 78.672875 
L 201.237526 77.99432 
L 202.402733 77.538814 
L 203.567941 77.342703 
L 204.733148 77.421634 
L 205.898355 77.769308 
L 207.063562 78.357986 
L 208.811373 79.585775 
L 213.472201 83.212533 
L 214.637408 83.804093 
L 215.802616 84.155147 
L 216.967823 84.237685 
L 218.13303 84.04512 
L 219.298237 83.592819 
L 220.463444 82.916869 
L 222.211255 81.605425 
L 225.706876 78.806261 
L 226.872083 78.094854 
L 228.03729 77.598475 
L 229.202498 77.35673 
L 230.367705 77.388908 
L 231.532912 77.692441 
L 232.698119 78.243111 
L 234.44593 79.431826 
L 239.106758 83.091631 
L 240.271965 83.719735 
L 241.437172 84.114063 
L 242.60238 84.243153 
L 243.767587 84.096705 
L 244.932794 83.686403 
L 246.098001 83.044986 
L 247.845812 81.765533 
L 251.924037 78.550461 
L 253.089244 77.904623 
L 254.254451 77.488992 
L 255.419658 77.336731 
L 256.584865 77.459988 
L 257.750072 77.848929 
L 258.915279 78.47252 
L 260.66309 79.734868 
L 264.741315 82.965425 
L 265.906522 83.628625 
L 267.071729 84.065319 
L 268.236937 84.240664 
L 269.402144 84.140669 
L 270.567351 83.773313 
L 271.732558 83.167907 
L 273.480369 81.923392 
L 277.558594 78.67921 
L 278.723801 77.999031 
L 279.889008 77.541526 
L 281.054215 77.343198 
L 282.219422 77.419873 
L 283.384629 77.765433 
L 284.549836 78.352305 
L 286.297647 79.57827 
L 290.958476 83.206817 
L 290.958476 83.206817 
" clip-path="url(#p42ed1338df)" style="fill: none; stroke: #e69f00; stroke-width: 1.4; stroke-linecap: square"/>
   </g>
   <g id="line2d_5">
    <path d="M 175.020366 55.995386 
L 176.185573 55.46117 
L 177.35078 55.176513 
L 178.515987 55.164126 
L 179.681194 55.425 
L 180.846402 55.938317 
L 182.011609 56.663123 
L 183.759419 58.016863 
L 186.672437 60.370776 
L 187.837644 61.126937 
L 189.002851 61.68059 
L 190.168059 61.987561 
L 191.333266 62.023356 
L 192.498473 61.78512 
L 193.66368 61.29186 
L 194.828887 60.582935 
L 196.576698 59.242524 
L 200.072319 56.47196 
L 201.237526 55.793405 
L 202.402733 55.3379 
L 203.567941 55.141789 
L 204.733148 55.220719 
L 205.898355 55.568394 
L 207.063562 56.157072 
L 208.811373 57.38486 
L 213.472201 61.011618 
L 214.637408 61.603178 
L 215.802616 61.954232 
L 216.967823 62.03677 
L 218.13303 61.844206 
L 219.298237 61.391904 
L 220.463444 60.715954 
L 222.211255 59.404511 
L 225.706876 56.605346 
L 226.872083 55.893939 
L 228.03729 55.39756 
L 229.202498 55.155816 
L 230.367705 55.187993 
L 231.532912 55.491526 
L 232.698119 56.042196 
L 234.44593 57.230911 
L 239.106758 60.890717 
L 240.271965 61.51882 
L 241.437172 61.913149 
L 242.60238 62.042239 
L 243.767587 61.89579 
L 244.932794 61.485489 
L 246.098001 60.844072 
L 247.845812 59.564618 
L 251.924037 56.349546 
L 253.089244 55.703708 
L 254.254451 55.288078 
L 255.419658 55.135816 
L 256.584865 55.259073 
L 257.750072 55.648014 
L 258.915279 56.271605 
L 260.66309 57.533953 
L 264.741315 60.764511 
L 265.906522 61.42771 
L 267.071729 61.864404 
L 268.236937 62.039749 
L 269.402144 61.939754 
L 270.567351 61.572398 
L 271.732558 60.966992 
L 273.480369 59.722477 
L 277.558594 56.478296 
L 278.723801 55.798116 
L 279.889008 55.340611 
L 281.054215 55.142284 
L 282.219422 55.218959 
L 283.384629 55.564518 
L 284.549836 56.15139 
L 286.297647 57.377355 
L 290.958476 61.005903 
L 290.958476 61.005903 
" clip-path="url(#p42ed1338df)" style="fill: none; stroke: #e69f00; stroke-width: 1.4; stroke-linecap: square"/>
   </g>
   <g id="line2d_6">
    <path d="M 175.020366 33.794472 
L 176.185573 33.260256 
L 177.35078 32.975598 
L 178.515987 32.963212 
L 179.681194 33.224085 
L 180.846402 33.737403 
L 182.011609 34.462208 
L 183.759419 35.815948 
L 186.672437 38.169861 
L 187.837644 38.926022 
L 189.002851 39.479675 
L 190.168059 39.786646 
L 191.333266 39.822441 
L 192.498473 39.584205 
L 193.66368 39.090946 
L 194.828887 38.38202 
L 196.576698 37.041609 
L 200.072319 34.271046 
L 201.237526 33.59249 
L 202.402733 33.136985 
L 203.567941 32.940874 
L 204.733148 33.019805 
L 205.898355 33.367479 
L 207.063562 33.956157 
L 208.811373 35.183946 
L 213.472201 38.810704 
L 214.637408 39.402264 
L 215.802616 39.753318 
L 216.967823 39.835855 
L 218.13303 39.643291 
L 219.298237 39.19099 
L 220.463444 38.515039 
L 222.211255 37.203596 
L 225.706876 34.404431 
L 226.872083 33.693024 
L 228.03729 33.196646 
L 229.202498 32.954901 
L 230.367705 32.987079 
L 231.532912 33.290612 
L 232.698119 33.841281 
L 234.44593 35.029997 
L 239.106758 38.689802 
L 240.271965 39.317906 
L 241.437172 39.712234 
L 242.60238 39.841324 
L 243.767587 39.694876 
L 244.932794 39.284574 
L 246.098001 38.643157 
L 247.845812 37.363704 
L 251.924037 34.148631 
L 253.089244 33.502794 
L 254.254451 33.087163 
L 255.419658 32.934902 
L 256.584865 33.058159 
L 257.750072 33.447099 
L 258.915279 34.070691 
L 260.66309 35.333039 
L 264.741315 38.563596 
L 265.906522 39.226796 
L 267.071729 39.66349 
L 268.236937 39.838834 
L 269.402144 39.73884 
L 270.567351 39.371484 
L 271.732558 38.766078 
L 273.480369 37.521563 
L 277.558594 34.277381 
L 278.723801 33.597202 
L 279.889008 33.139697 
L 281.054215 32.941369 
L 282.219422 33.018044 
L 283.384629 33.363603 
L 284.549836 33.950475 
L 286.297647 35.17644 
L 290.958476 38.804988 
L 290.958476 38.804988 
" clip-path="url(#p42ed1338df)" style="fill: none; stroke: #e69f00; stroke-width: 1.4; stroke-linecap: square"/>
   </g>
   <g id="patch_8">
    <path d="M 293.425244 102.990732 
L 308.225854 102.990732 
L 308.225854 14.187073 
L 293.425244 14.187073 
z
" clip-path="url(#p42ed1338df)" style="fill: var(--muted); fill-opacity: 0.35; stroke: var(--ink); stroke-width: 1.4; stroke-linejoin: miter"/>
   </g>
   <g id="patch_9">
    <path d="M 276.157866 80.789817 
Q 282.324787 80.789817 286.691673 80.789817 
" style="fill: none; stroke: #e69f00; stroke-width: 1.61; stroke-linecap: round"/>
    <path d="M 283.091673 78.989817 
L 286.691673 80.789817 
L 283.091673 82.589817 
z
" style="fill: #e69f00; stroke: #e69f00; stroke-width: 1.61; stroke-linecap: round"/>
   </g>
   <g id="patch_10">
    <path d="M 258.890488 72.402805 
Q 246.556646 72.402805 235.765692 72.402805 
" style="fill: none; stroke: #e69f00; stroke-width: 1.38; stroke-linecap: round"/>
    <path d="M 238.965692 74.002805 
L 235.765692 72.402805 
L 238.965692 70.802805 
z
" style="fill: #e69f00; stroke: #e69f00; stroke-width: 1.38; stroke-linecap: round"/>
   </g>
   <g id="patch_11">
    <path d="M 276.157866 58.588902 
Q 282.324787 58.588902 286.691673 58.588902 
" style="fill: none; stroke: #e69f00; stroke-width: 1.61; stroke-linecap: round"/>
    <path d="M 283.091673 56.788902 
L 286.691673 58.588902 
L 283.091673 60.388902 
z
" style="fill: #e69f00; stroke: #e69f00; stroke-width: 1.61; stroke-linecap: round"/>
   </g>
   <g id="patch_12">
    <path d="M 258.890488 50.20189 
Q 246.556646 50.20189 235.765692 50.20189 
" style="fill: none; stroke: #e69f00; stroke-width: 1.38; stroke-linecap: round"/>
    <path d="M 238.965692 51.80189 
L 235.765692 50.20189 
L 238.965692 48.60189 
z
" style="fill: #e69f00; stroke: #e69f00; stroke-width: 1.38; stroke-linecap: round"/>
   </g>
   <g id="patch_13">
    <path d="M 276.157866 36.387988 
Q 282.324787 36.387988 286.691673 36.387988 
" style="fill: none; stroke: #e69f00; stroke-width: 1.61; stroke-linecap: round"/>
    <path d="M 283.091673 34.587988 
L 286.691673 36.387988 
L 283.091673 38.187988 
z
" style="fill: #e69f00; stroke: #e69f00; stroke-width: 1.61; stroke-linecap: round"/>
   </g>
   <g id="patch_14">
    <path d="M 258.890488 28.000976 
Q 246.556646 28.000976 235.765692 28.000976 
" style="fill: none; stroke: #e69f00; stroke-width: 1.38; stroke-linecap: round"/>
    <path d="M 238.965692 29.600976 
L 235.765692 28.000976 
L 238.965692 26.400976 
z
" style="fill: #e69f00; stroke: #e69f00; stroke-width: 1.38; stroke-linecap: round"/>
   </g>
   <g id="patch_15">
    <path d="M 313.15939 58.588902 
Q 319.326311 58.588902 322.407458 58.588902 
" style="fill: none; stroke: var(--ink); stroke-width: 2.76; stroke-linecap: round"/>
    <path d="M 317.607458 56.188902 
L 322.407458 58.588902 
L 317.607458 60.988902 
z
" style="fill: var(--ink); stroke: var(--ink); stroke-width: 2.76; stroke-linecap: round"/>
   </g>
   <g id="text_2">
    <g id="patch_16">
     <path d="M 208.661696 119.658137 
L 289.385133 119.658137 
Q 294.485133 119.658137 294.485133 114.558137 
L 294.485133 111.157473 
Q 294.485133 106.057473 289.385133 106.057473 
L 208.661696 106.057473 
Q 203.561696 106.057473 203.561696 111.157473 
L 203.561696 114.558137 
Q 203.561696 119.658137 208.661696 119.658137 
z
" style="fill: var(--muted)"/>
    </g>
    <!-- reflected: P = 2I/c -->
    <g style="fill: var(--tagtext)" transform="translate(206.111696 115.066145) scale(0.085 -0.085)">
     <defs>
      <path id="DejaVuSans-Bold-13ac" d="M 1984 4863 
L 4206 4863 
L 4206 0 
L 3078 0 
L 3078 4128 
L 2222 4128 
Q 1984 4128 1890 4042 
Q 1797 3956 1797 3744 
L 1797 3500 
L 2675 3500 
L 2675 2700 
L 1797 2700 
L 1797 0 
L 678 0 
L 678 2700 
L 122 2700 
L 122 3500 
L 678 3500 
L 678 3744 
Q 678 4316 997 4589 
Q 1316 4863 1984 4863 
z
" transform="scale(0.015625)"/>
      <path id="DejaVuSans-Bold-57" d="M 1759 4494 
L 1759 3500 
L 2913 3500 
L 2913 2700 
L 1759 2700 
L 1759 1216 
Q 1759 972 1856 886 
Q 1953 800 2241 800 
L 2816 800 
L 2816 0 
L 1856 0 
Q 1194 0 917 276 
Q 641 553 641 1216 
L 641 2700 
L 84 2700 
L 84 3500 
L 641 3500 
L 641 4494 
L 1759 4494 
z
" transform="scale(0.015625)"/>
      <path id="DejaVuSans-Bold-15" d="M 1844 884 
L 3897 884 
L 3897 0 
L 506 0 
L 506 884 
L 2209 2388 
Q 2438 2594 2547 2791 
Q 2656 2988 2656 3200 
Q 2656 3528 2436 3728 
Q 2216 3928 1850 3928 
Q 1569 3928 1234 3808 
Q 900 3688 519 3450 
L 519 4475 
Q 925 4609 1322 4679 
Q 1719 4750 2100 4750 
Q 2938 4750 3402 4381 
Q 3866 4013 3866 3353 
Q 3866 2972 3669 2642 
Q 3472 2313 2841 1759 
L 1844 884 
z
" transform="scale(0.015625)"/>
     </defs>
     <use xlink:href="#DejaVuSans-Bold-55"/>
     <use xlink:href="#DejaVuSans-Bold-48" transform="translate(49.3125 0)"/>
     <use xlink:href="#DejaVuSans-Bold-13ac" transform="translate(117.140625 0)"/>
     <use xlink:href="#DejaVuSans-Bold-48" transform="translate(191.265625 0)"/>
     <use xlink:href="#DejaVuSans-Bold-46" transform="translate(259.09375 0)"/>
     <use xlink:href="#DejaVuSans-Bold-57" transform="translate(318.375 0)"/>
     <use xlink:href="#DejaVuSans-Bold-48" transform="translate(366.171875 0)"/>
     <use xlink:href="#DejaVuSans-Bold-47" transform="translate(434 0)"/>
     <use xlink:href="#DejaVuSans-Bold-1d" transform="translate(505.578125 0)"/>
     <use xlink:href="#DejaVuSans-Bold-3" transform="translate(545.5625 0)"/>
     <use xlink:href="#DejaVuSans-Bold-33" transform="translate(580.375 0)"/>
     <use xlink:href="#DejaVuSans-Bold-3" transform="translate(653.671875 0)"/>
     <use xlink:href="#DejaVuSans-Bold-20" transform="translate(688.484375 0)"/>
     <use xlink:href="#DejaVuSans-Bold-3" transform="translate(772.28125 0)"/>
     <use xlink:href="#DejaVuSans-Bold-15" transform="translate(807.09375 0)"/>
     <use xlink:href="#DejaVuSans-Bold-2c" transform="translate(876.671875 0)"/>
     <use xlink:href="#DejaVuSans-Bold-12" transform="translate(913.875 0)"/>
     <use xlink:href="#DejaVuSans-Bold-46" transform="translate(950.40625 0)"/>
    </g>
   </g>
  </g>
 </g>
 <defs>
  <clipPath id="p274fae5690">
   <rect x="4.32" y="4.32" width="157.873171" height="113.471341"/>
  </clipPath>
  <clipPath id="p42ed1338df">
   <rect x="170.086829" y="4.32" width="157.873171" height="113.471341"/>
  </clipPath>
 </defs>
</svg>
