<?xml version="1.0" encoding="utf-8" standalone="no"?>
<!DOCTYPE svg PUBLIC "-//W3C//DTD SVG 1.1//EN"
  "http://www.w3.org/Graphics/SVG/1.1/DTD/svg11.dtd">
<svg xmlns:xlink="http://www.w3.org/1999/xlink" width="251.0325pt" height="98.96625pt" viewBox="0 0 251.0325 98.96625" xmlns="http://www.w3.org/2000/svg" version="1.1">
<style>
  svg { --ink: #111827; --muted: #475569; --tagtext: #ffffff; }
  @media (prefers-color-scheme: dark) { svg { --ink: #f3f4f6; --muted: #aab2bd; --tagtext: #111827; } }
</style>

 <metadata>
  <rdf:RDF xmlns:dc="http://purl.org/dc/elements/1.1/" xmlns:cc="http://creativecommons.org/ns#" xmlns:rdf="http://www.w3.org/1999/02/22-rdf-syntax-ns#">
   <cc:Work>
    <dc:type rdf:resource="http://purl.org/dc/dcmitype/StillImage"/>
    <dc:date>2026-09-22T14:03:25.478396</dc:date>
    <dc:format>image/svg+xml</dc:format>
    <dc:creator>
     <cc:Agent>
      <dc:title>Matplotlib v3.11.1, https://matplotlib.org/</dc:title>
     </cc:Agent>
    </dc:creator>
   </cc:Work>
  </rdf:RDF>
 </metadata>
 <defs>
  <style type="text/css">*{stroke-linejoin: round; stroke-linecap: butt}</style>
 </defs>
 <g id="figure_1">
  <g id="patch_1">
   <path d="M 0 98.96625 
L 251.0325 98.96625 
L 251.0325 0 
L 0 0 
L 0 98.96625 
z
" style="fill: none"/>
  </g>
  <g id="axes_1">
   <g id="line2d_1">
    <path d="M 40.93875 50.70375 
L 41.944692 47.320324 
L 42.950634 44.823997 
L 43.453606 44.127457 
L 43.956577 43.869281 
L 44.459548 44.066679 
L 44.962519 44.706492 
L 45.46549 45.746073 
L 46.471432 48.725319 
L 48.483317 55.322852 
L 48.986288 56.458907 
L 49.489259 57.211334 
L 49.99223 57.529976 
L 50.495201 57.393594 
L 50.998172 56.811279 
L 51.501143 55.821846 
L 52.507085 52.908186 
L 54.51897 46.262397 
L 55.021941 45.080131 
L 55.524912 44.272725 
L 56.027883 43.894001 
L 56.530854 43.969202 
L 57.033825 44.493317 
L 57.536796 45.431408 
L 58.542739 48.275968 
L 60.554623 54.961998 
L 61.057594 56.189049 
L 61.560565 57.050459 
L 62.063536 57.488809 
L 62.566508 57.474879 
L 63.069479 57.009597 
L 63.57245 56.123978 
L 64.578392 53.35195 
L 66.590276 46.633744 
L 67.093247 45.363388 
L 67.596219 44.449011 
L 68.09919 43.951564 
L 68.602161 43.904207 
L 69.105132 44.310095 
L 69.608103 45.142173 
L 70.111074 46.344976 
L 71.117016 49.522682 
L 72.62593 54.580606 
L 73.128901 55.892735 
L 73.631872 56.858974 
L 74.134843 57.414918 
L 74.637814 57.523506 
L 75.140785 57.177502 
L 75.643756 56.399968 
L 76.146727 55.242735 
L 77.15267 52.117893 
L 78.661583 47.02472 
L 79.164554 45.672402 
L 79.667525 44.655464 
L 80.170496 44.041695 
L 80.673467 43.872006 
L 81.176438 44.15771 
L 81.67941 44.879761 
L 82.182381 45.990029 
L 83.188323 49.058238 
L 84.697236 54.180516 
L 85.703178 56.637802 
L 86.206149 57.308658 
L 86.709121 57.539241 
L 87.212092 57.314183 
L 87.715063 56.648485 
L 88.218034 55.586521 
L 89.223976 52.578647 
L 90.732889 47.433442 
L 91.738832 44.891089 
L 92.241803 44.163956 
L 92.744774 43.872755 
L 93.247745 44.036897 
L 93.750716 44.645439 
L 94.253687 45.657818 
L 95.259629 48.60173 
L 97.271514 55.226575 
L 97.774485 56.38801 
L 98.277456 57.170542 
L 98.780427 57.522008 
L 99.283398 57.418982 
L 99.786369 56.86833 
L 100.28934 55.906758 
L 101.295283 53.030358 
L 103.307167 46.361622 
L 103.810138 45.154748 
L 104.313109 44.31776 
L 104.81608 43.906451 
L 105.319052 43.948239 
L 105.822023 44.440337 
L 106.324994 45.349943 
L 107.330936 48.15536 
L 109.34282 54.859943 
L 109.845791 56.110802 
L 110.348763 57.001236 
L 110.851734 57.47189 
L 111.354705 57.491393 
L 111.857676 57.058442 
L 112.360647 56.201899 
L 113.366589 53.470848 
L 115.378474 46.738505 
L 115.881445 45.44517 
L 116.384416 44.502364 
L 116.887387 43.972931 
L 117.390358 43.892163 
L 117.893329 44.265443 
L 118.3963 45.06789 
L 118.899271 46.246013 
L 119.905214 49.395356 
L 121.414127 54.473265 
L 121.917098 55.807515 
L 122.420069 56.801557 
L 122.92304 57.389129 
L 123.426011 57.531066 
L 123.928982 57.217906 
L 124.431954 56.470523 
L 124.934925 55.338738 
L 125.940867 52.244323 
L 127.44978 47.134512 
L 127.952751 45.760956 
L 128.455722 44.716878 
L 128.958693 44.071874 
L 129.461665 43.86894 
L 129.964636 44.121602 
L 130.467607 44.813019 
L 130.970578 45.897102 
L 131.97652 48.932855 
L 133.485433 54.068407 
L 134.491376 56.572467 
L 134.994347 57.274124 
L 135.497318 57.537811 
L 136.000289 57.345951 
L 136.50326 56.711333 
L 137.006231 55.676261 
L 138.012173 52.70283 
L 140.024058 46.10058 
L 140.527029 44.960266 
L 141.03 44.202803 
L 141.03 44.202803 
" clip-path="url(#pc5a97c4879)" style="fill: none; stroke: var(--ink); stroke-width: 1.4; stroke-linecap: square"/>
   </g>
   <g id="patch_2">
    <path d="M 28.7325 62.91 
C 31.969635 62.91 35.074622 61.623872 37.363622 59.334872 
C 39.652622 57.045872 40.93875 53.940885 40.93875 50.70375 
C 40.93875 47.466615 39.652622 44.361628 37.363622 42.072628 
C 35.074622 39.783628 31.969635 38.4975 28.7325 38.4975 
C 25.495365 38.4975 22.390378 39.783628 20.101378 42.072628 
C 17.812378 44.361628 16.52625 47.466615 16.52625 50.70375 
C 16.52625 53.940885 17.812378 57.045872 20.101378 59.334872 
C 22.390378 61.623872 25.495365 62.91 28.7325 62.91 
z
" clip-path="url(#pc5a97c4879)" style="fill: #d55e00; stroke: #d55e00; stroke-linejoin: miter"/>
   </g>
   <g id="text_1">
    <!-- $\mathbf{E}$ of the wave -->
    <g style="fill: #009e73" transform="translate(184.9725 28.630195) scale(0.09 -0.09)">
     <defs>
      <path id="Cmb10-65" d="M 219 0 
L 219 325 
L 819 325 
L 819 4063 
L 219 4063 
L 219 4391 
L 3634 4391 
L 3834 2822 
L 3506 2822 
Q 3441 3306 3344 3554 
Q 3247 3803 3011 3933 
Q 2775 4063 2316 4063 
L 1753 4063 
L 1753 2444 
L 1875 2444 
Q 2253 2444 2358 2616 
Q 2463 2788 2463 3194 
L 2791 3194 
L 2791 1369 
L 2463 1369 
Q 2463 1647 2427 1798 
Q 2391 1950 2264 2034 
Q 2138 2119 1875 2119 
L 1753 2119 
L 1753 325 
L 2369 325 
Q 2866 325 3125 495 
Q 3384 666 3490 956 
Q 3597 1247 3688 1778 
L 4013 1778 
L 3719 0 
L 219 0 
z
" transform="scale(0.015625)"/>
      <path id="DejaVuSans-3" transform="scale(0.015625)"/>
      <path id="DejaVuSans-52" d="M 1959 3097 
Q 1497 3097 1228 2736 
Q 959 2375 959 1747 
Q 959 1119 1226 758 
Q 1494 397 1959 397 
Q 2419 397 2687 759 
Q 2956 1122 2956 1747 
Q 2956 2369 2687 2733 
Q 2419 3097 1959 3097 
z
M 1959 3584 
Q 2709 3584 3137 3096 
Q 3566 2609 3566 1747 
Q 3566 888 3137 398 
Q 2709 -91 1959 -91 
Q 1206 -91 779 398 
Q 353 888 353 1747 
Q 353 2609 779 3096 
Q 1206 3584 1959 3584 
z
" transform="scale(0.015625)"/>
      <path id="DejaVuSans-49" d="M 2375 4863 
L 2375 4384 
L 1825 4384 
Q 1516 4384 1395 4259 
Q 1275 4134 1275 3809 
L 1275 3500 
L 2222 3500 
L 2222 3053 
L 1275 3053 
L 1275 0 
L 697 0 
L 697 3053 
L 147 3053 
L 147 3500 
L 697 3500 
L 697 3744 
Q 697 4328 969 4595 
Q 1241 4863 1831 4863 
L 2375 4863 
z
" transform="scale(0.015625)"/>
      <path id="DejaVuSans-57" d="M 1172 4494 
L 1172 3500 
L 2356 3500 
L 2356 3053 
L 1172 3053 
L 1172 1153 
Q 1172 725 1289 603 
Q 1406 481 1766 481 
L 2356 481 
L 2356 0 
L 1766 0 
Q 1100 0 847 248 
Q 594 497 594 1153 
L 594 3053 
L 172 3053 
L 172 3500 
L 594 3500 
L 594 4494 
L 1172 4494 
z
" transform="scale(0.015625)"/>
      <path id="DejaVuSans-4b" d="M 3513 2113 
L 3513 0 
L 2938 0 
L 2938 2094 
Q 2938 2591 2744 2837 
Q 2550 3084 2163 3084 
Q 1697 3084 1428 2787 
Q 1159 2491 1159 1978 
L 1159 0 
L 581 0 
L 581 4863 
L 1159 4863 
L 1159 2956 
Q 1366 3272 1645 3428 
Q 1925 3584 2291 3584 
Q 2894 3584 3203 3211 
Q 3513 2838 3513 2113 
z
" transform="scale(0.015625)"/>
      <path id="DejaVuSans-48" d="M 3597 1894 
L 3597 1613 
L 953 1613 
Q 991 1019 1311 708 
Q 1631 397 2203 397 
Q 2534 397 2845 478 
Q 3156 559 3463 722 
L 3463 178 
Q 3153 47 2828 -22 
Q 2503 -91 2169 -91 
Q 1331 -91 842 396 
Q 353 884 353 1716 
Q 353 2575 817 3079 
Q 1281 3584 2069 3584 
Q 2775 3584 3186 3129 
Q 3597 2675 3597 1894 
z
M 3022 2063 
Q 3016 2534 2758 2815 
Q 2500 3097 2075 3097 
Q 1594 3097 1305 2825 
Q 1016 2553 972 2059 
L 3022 2063 
z
" transform="scale(0.015625)"/>
      <path id="DejaVuSans-5a" d="M 269 3500 
L 844 3500 
L 1563 769 
L 2278 3500 
L 2956 3500 
L 3675 769 
L 4391 3500 
L 4966 3500 
L 4050 0 
L 3372 0 
L 2619 2869 
L 1863 0 
L 1184 0 
L 269 3500 
z
" transform="scale(0.015625)"/>
      <path id="DejaVuSans-44" d="M 2194 1759 
Q 1497 1759 1228 1600 
Q 959 1441 959 1056 
Q 959 750 1161 570 
Q 1363 391 1709 391 
Q 2188 391 2477 730 
Q 2766 1069 2766 1631 
L 2766 1759 
L 2194 1759 
z
M 3341 1997 
L 3341 0 
L 2766 0 
L 2766 531 
Q 2569 213 2275 61 
Q 1981 -91 1556 -91 
Q 1019 -91 701 211 
Q 384 513 384 1019 
Q 384 1609 779 1909 
Q 1175 2209 1959 2209 
L 2766 2209 
L 2766 2266 
Q 2766 2663 2505 2880 
Q 2244 3097 1772 3097 
Q 1472 3097 1187 3025 
Q 903 2953 641 2809 
L 641 3341 
Q 956 3463 1253 3523 
Q 1550 3584 1831 3584 
Q 2591 3584 2966 3190 
Q 3341 2797 3341 1997 
z
" transform="scale(0.015625)"/>
      <path id="DejaVuSans-59" d="M 191 3500 
L 800 3500 
L 1894 563 
L 2988 3500 
L 3597 3500 
L 2284 0 
L 1503 0 
L 191 3500 
z
" transform="scale(0.015625)"/>
     </defs>
     <use xlink:href="#Cmb10-65" transform="translate(0 0.015625)"/>
     <use xlink:href="#DejaVuSans-3" transform="translate(65.478516 0.015625)"/>
     <use xlink:href="#DejaVuSans-52" transform="translate(97.265625 0.015625)"/>
     <use xlink:href="#DejaVuSans-49" transform="translate(158.447266 0.015625)"/>
     <use xlink:href="#DejaVuSans-3" transform="translate(193.652344 0.015625)"/>
     <use xlink:href="#DejaVuSans-57" transform="translate(225.439453 0.015625)"/>
     <use xlink:href="#DejaVuSans-4b" transform="translate(264.648438 0.015625)"/>
     <use xlink:href="#DejaVuSans-48" transform="translate(328.027344 0.015625)"/>
     <use xlink:href="#DejaVuSans-3" transform="translate(389.550781 0.015625)"/>
     <use xlink:href="#DejaVuSans-5a" transform="translate(421.337891 0.015625)"/>
     <use xlink:href="#DejaVuSans-44" transform="translate(503.125 0.015625)"/>
     <use xlink:href="#DejaVuSans-59" transform="translate(564.404297 0.015625)"/>
     <use xlink:href="#DejaVuSans-48" transform="translate(623.583984 0.015625)"/>
    </g>
   </g>
   <g id="text_2">
    <!-- spring (natural frequency $\omega_0$) -->
    <g style="fill: var(--ink)" transform="translate(28.26625 74.884004) scale(0.085 -0.085)">
     <defs>
      <path id="DejaVuSans-56" d="M 2834 3397 
L 2834 2853 
Q 2591 2978 2328 3040 
Q 2066 3103 1784 3103 
Q 1356 3103 1142 2972 
Q 928 2841 928 2578 
Q 928 2378 1081 2264 
Q 1234 2150 1697 2047 
L 1894 2003 
Q 2506 1872 2764 1633 
Q 3022 1394 3022 966 
Q 3022 478 2636 193 
Q 2250 -91 1575 -91 
Q 1294 -91 989 -36 
Q 684 19 347 128 
L 347 722 
Q 666 556 975 473 
Q 1284 391 1588 391 
Q 1994 391 2212 530 
Q 2431 669 2431 922 
Q 2431 1156 2273 1281 
Q 2116 1406 1581 1522 
L 1381 1569 
Q 847 1681 609 1914 
Q 372 2147 372 2553 
Q 372 3047 722 3315 
Q 1072 3584 1716 3584 
Q 2034 3584 2315 3537 
Q 2597 3491 2834 3397 
z
" transform="scale(0.015625)"/>
      <path id="DejaVuSans-53" d="M 1159 525 
L 1159 -1331 
L 581 -1331 
L 581 3500 
L 1159 3500 
L 1159 2969 
Q 1341 3281 1617 3432 
Q 1894 3584 2278 3584 
Q 2916 3584 3314 3078 
Q 3713 2572 3713 1747 
Q 3713 922 3314 415 
Q 2916 -91 2278 -91 
Q 1894 -91 1617 61 
Q 1341 213 1159 525 
z
M 3116 1747 
Q 3116 2381 2855 2742 
Q 2594 3103 2138 3103 
Q 1681 3103 1420 2742 
Q 1159 2381 1159 1747 
Q 1159 1113 1420 752 
Q 1681 391 2138 391 
Q 2594 391 2855 752 
Q 3116 1113 3116 1747 
z
" transform="scale(0.015625)"/>
      <path id="DejaVuSans-55" d="M 2631 2963 
Q 2534 3019 2420 3045 
Q 2306 3072 2169 3072 
Q 1681 3072 1420 2755 
Q 1159 2438 1159 1844 
L 1159 0 
L 581 0 
L 581 3500 
L 1159 3500 
L 1159 2956 
Q 1341 3275 1631 3429 
Q 1922 3584 2338 3584 
Q 2397 3584 2469 3576 
Q 2541 3569 2628 3553 
L 2631 2963 
z
" transform="scale(0.015625)"/>
      <path id="DejaVuSans-4c" d="M 603 3500 
L 1178 3500 
L 1178 0 
L 603 0 
L 603 3500 
z
M 603 4863 
L 1178 4863 
L 1178 4134 
L 603 4134 
L 603 4863 
z
" transform="scale(0.015625)"/>
      <path id="DejaVuSans-51" d="M 3513 2113 
L 3513 0 
L 2938 0 
L 2938 2094 
Q 2938 2591 2744 2837 
Q 2550 3084 2163 3084 
Q 1697 3084 1428 2787 
Q 1159 2491 1159 1978 
L 1159 0 
L 581 0 
L 581 3500 
L 1159 3500 
L 1159 2956 
Q 1366 3272 1645 3428 
Q 1925 3584 2291 3584 
Q 2894 3584 3203 3211 
Q 3513 2838 3513 2113 
z
" transform="scale(0.015625)"/>
      <path id="DejaVuSans-4a" d="M 2906 1791 
Q 2906 2416 2648 2759 
Q 2391 3103 1925 3103 
Q 1463 3103 1205 2759 
Q 947 2416 947 1791 
Q 947 1169 1205 825 
Q 1463 481 1925 481 
Q 2391 481 2648 825 
Q 2906 1169 2906 1791 
z
M 3481 434 
Q 3481 -459 3084 -895 
Q 2688 -1331 1869 -1331 
Q 1566 -1331 1297 -1286 
Q 1028 -1241 775 -1147 
L 775 -588 
Q 1028 -725 1275 -790 
Q 1522 -856 1778 -856 
Q 2344 -856 2625 -561 
Q 2906 -266 2906 331 
L 2906 616 
Q 2728 306 2450 153 
Q 2172 0 1784 0 
Q 1141 0 747 490 
Q 353 981 353 1791 
Q 353 2603 747 3093 
Q 1141 3584 1784 3584 
Q 2172 3584 2450 3431 
Q 2728 3278 2906 2969 
L 2906 3500 
L 3481 3500 
L 3481 434 
z
" transform="scale(0.015625)"/>
      <path id="DejaVuSans-b" d="M 1984 4856 
Q 1566 4138 1362 3434 
Q 1159 2731 1159 2009 
Q 1159 1288 1364 580 
Q 1569 -128 1984 -844 
L 1484 -844 
Q 1016 -109 783 600 
Q 550 1309 550 2009 
Q 550 2706 781 3412 
Q 1013 4119 1484 4856 
L 1984 4856 
z
" transform="scale(0.015625)"/>
      <path id="DejaVuSans-58" d="M 544 1381 
L 544 3500 
L 1119 3500 
L 1119 1403 
Q 1119 906 1312 657 
Q 1506 409 1894 409 
Q 2359 409 2629 706 
Q 2900 1003 2900 1516 
L 2900 3500 
L 3475 3500 
L 3475 0 
L 2900 0 
L 2900 538 
Q 2691 219 2414 64 
Q 2138 -91 1772 -91 
Q 1169 -91 856 284 
Q 544 659 544 1381 
z
M 1991 3584 
L 1991 3584 
z
" transform="scale(0.015625)"/>
      <path id="DejaVuSans-4f" d="M 603 4863 
L 1178 4863 
L 1178 0 
L 603 0 
L 603 4863 
z
" transform="scale(0.015625)"/>
      <path id="DejaVuSans-54" d="M 947 1747 
Q 947 1113 1208 752 
Q 1469 391 1925 391 
Q 2381 391 2643 752 
Q 2906 1113 2906 1747 
Q 2906 2381 2643 2742 
Q 2381 3103 1925 3103 
Q 1469 3103 1208 2742 
Q 947 2381 947 1747 
z
M 2906 525 
Q 2725 213 2448 61 
Q 2172 -91 1784 -91 
Q 1150 -91 751 415 
Q 353 922 353 1747 
Q 353 2572 751 3078 
Q 1150 3584 1784 3584 
Q 2172 3584 2448 3432 
Q 2725 3281 2906 2969 
L 2906 3500 
L 3481 3500 
L 3481 -1331 
L 2906 -1331 
L 2906 525 
z
" transform="scale(0.015625)"/>
      <path id="DejaVuSans-46" d="M 3122 3366 
L 3122 2828 
Q 2878 2963 2633 3030 
Q 2388 3097 2138 3097 
Q 1578 3097 1268 2742 
Q 959 2388 959 1747 
Q 959 1106 1268 751 
Q 1578 397 2138 397 
Q 2388 397 2633 464 
Q 2878 531 3122 666 
L 3122 134 
Q 2881 22 2623 -34 
Q 2366 -91 2075 -91 
Q 1284 -91 818 406 
Q 353 903 353 1747 
Q 353 2603 823 3093 
Q 1294 3584 2113 3584 
Q 2378 3584 2631 3529 
Q 2884 3475 3122 3366 
z
" transform="scale(0.015625)"/>
      <path id="DejaVuSans-5c" d="M 2059 -325 
Q 1816 -950 1584 -1140 
Q 1353 -1331 966 -1331 
L 506 -1331 
L 506 -850 
L 844 -850 
Q 1081 -850 1212 -737 
Q 1344 -625 1503 -206 
L 1606 56 
L 191 3500 
L 800 3500 
L 1894 763 
L 2988 3500 
L 3597 3500 
L 2059 -325 
z
" transform="scale(0.015625)"/>
      <path id="Cmmi10-1d" d="M 775 -72 
Q 413 -72 252 193 
Q 91 459 91 844 
Q 91 1097 136 1339 
Q 181 1581 273 1829 
Q 366 2078 484 2295 
Q 603 2513 750 2719 
Q 778 2759 825 2759 
Q 866 2759 891 2734 
Q 916 2709 916 2675 
Q 916 2641 897 2613 
Q 313 1809 313 1131 
Q 313 838 448 627 
Q 584 416 863 416 
Q 1103 416 1308 556 
Q 1513 697 1663 916 
Q 1663 1028 1702 1265 
Q 1741 1503 1823 1689 
Q 1906 1875 2022 1875 
Q 2169 1875 2169 1703 
Q 2169 1603 2126 1451 
Q 2084 1300 2032 1169 
Q 1981 1038 1906 872 
Q 1981 416 2363 416 
Q 2584 416 2807 544 
Q 3031 672 3203 880 
Q 3375 1088 3473 1328 
Q 3572 1569 3572 1784 
Q 3572 1978 3511 2086 
Q 3450 2194 3350 2312 
Q 3250 2431 3250 2503 
Q 3250 2628 3356 2731 
Q 3463 2834 3584 2834 
Q 3741 2834 3806 2692 
Q 3872 2550 3872 2369 
Q 3872 2075 3755 1628 
Q 3638 1181 3488 884 
Q 3281 481 2970 204 
Q 2659 -72 2272 -72 
Q 2025 -72 1873 76 
Q 1722 225 1678 481 
Q 1500 228 1272 78 
Q 1044 -72 775 -72 
z
" transform="scale(0.015625)"/>
      <path id="Cmr10-28" d="M 1600 -141 
Q 816 -141 533 504 
Q 250 1150 250 2041 
Q 250 2597 351 3087 
Q 453 3578 754 3920 
Q 1056 4263 1600 4263 
Q 2022 4263 2290 4056 
Q 2559 3850 2700 3523 
Q 2841 3197 2892 2823 
Q 2944 2450 2944 2041 
Q 2944 1491 2842 1011 
Q 2741 531 2444 195 
Q 2147 -141 1600 -141 
z
M 1600 25 
Q 1956 25 2131 390 
Q 2306 756 2347 1200 
Q 2388 1644 2388 2144 
Q 2388 2625 2347 3031 
Q 2306 3438 2132 3767 
Q 1959 4097 1600 4097 
Q 1238 4097 1063 3765 
Q 888 3434 847 3029 
Q 806 2625 806 2144 
Q 806 1788 823 1472 
Q 841 1156 916 820 
Q 991 484 1158 254 
Q 1325 25 1600 25 
z
" transform="scale(0.015625)"/>
      <path id="DejaVuSans-c" d="M 513 4856 
L 1013 4856 
Q 1481 4119 1714 3412 
Q 1947 2706 1947 2009 
Q 1947 1309 1714 600 
Q 1481 -109 1013 -844 
L 513 -844 
Q 928 -128 1133 580 
Q 1338 1288 1338 2009 
Q 1338 2731 1133 3434 
Q 928 4138 513 4856 
z
" transform="scale(0.015625)"/>
     </defs>
     <use xlink:href="#DejaVuSans-56" transform="translate(0 0.015625)"/>
     <use xlink:href="#DejaVuSans-53" transform="translate(52.099609 0.015625)"/>
     <use xlink:href="#DejaVuSans-55" transform="translate(115.576172 0.015625)"/>
     <use xlink:href="#DejaVuSans-4c" transform="translate(156.689453 0.015625)"/>
     <use xlink:href="#DejaVuSans-51" transform="translate(184.472656 0.015625)"/>
     <use xlink:href="#DejaVuSans-4a" transform="translate(247.851562 0.015625)"/>
     <use xlink:href="#DejaVuSans-3" transform="translate(311.328125 0.015625)"/>
     <use xlink:href="#DejaVuSans-b" transform="translate(343.115234 0.015625)"/>
     <use xlink:href="#DejaVuSans-51" transform="translate(382.128906 0.015625)"/>
     <use xlink:href="#DejaVuSans-44" transform="translate(445.507812 0.015625)"/>
     <use xlink:href="#DejaVuSans-57" transform="translate(506.787109 0.015625)"/>
     <use xlink:href="#DejaVuSans-58" transform="translate(545.996094 0.015625)"/>
     <use xlink:href="#DejaVuSans-55" transform="translate(609.375 0.015625)"/>
     <use xlink:href="#DejaVuSans-44" transform="translate(650.488281 0.015625)"/>
     <use xlink:href="#DejaVuSans-4f" transform="translate(711.767578 0.015625)"/>
     <use xlink:href="#DejaVuSans-3" transform="translate(739.550781 0.015625)"/>
     <use xlink:href="#DejaVuSans-49" transform="translate(771.337891 0.015625)"/>
     <use xlink:href="#DejaVuSans-55" transform="translate(806.542969 0.015625)"/>
     <use xlink:href="#DejaVuSans-48" transform="translate(845.65625 0.015625)"/>
     <use xlink:href="#DejaVuSans-54" transform="translate(907.179688 0.015625)"/>
     <use xlink:href="#DejaVuSans-58" transform="translate(970.65625 0.015625)"/>
     <use xlink:href="#DejaVuSans-48" transform="translate(1034.035156 0.015625)"/>
     <use xlink:href="#DejaVuSans-51" transform="translate(1095.558594 0.015625)"/>
     <use xlink:href="#DejaVuSans-46" transform="translate(1158.9375 0.015625)"/>
     <use xlink:href="#DejaVuSans-5c" transform="translate(1213.917969 0.015625)"/>
     <use xlink:href="#DejaVuSans-3" transform="translate(1273.097656 0.015625)"/>
     <use xlink:href="#Cmmi10-1d" transform="translate(1304.884766 0.015625)"/>
     <use xlink:href="#Cmr10-28" transform="translate(1367.091797 -14.984337) scale(0.7)"/>
     <use xlink:href="#DejaVuSans-c" transform="translate(1407.812212 0.015625)"/>
    </g>
   </g>
   <g id="text_3">
    <!-- + -->
    <g transform="translate(23.704688 53.820937) scale(0.12 -0.12)">
     <defs>
      <path id="DejaVuSans-Bold-e" d="M 3053 4013 
L 3053 2375 
L 4684 2375 
L 4684 1638 
L 3053 1638 
L 3053 0 
L 2309 0 
L 2309 1638 
L 678 1638 
L 678 2375 
L 2309 2375 
L 2309 4013 
L 3053 4013 
z
" transform="scale(0.015625)"/>
     </defs>
     <use xlink:href="#DejaVuSans-Bold-e"/>
    </g>
   </g>
   <g id="patch_3">
    <path d="M 150.795 28.7325 
Q 141.03 28.7325 133.57933 28.7325 
" style="fill: none; stroke: #009e73; stroke-width: 2.07; stroke-linecap: round"/>
    <path d="M 137.57933 30.7325 
L 133.57933 28.7325 
L 137.57933 26.7325 
z
" style="fill: #009e73; stroke: #009e73; stroke-width: 2.07; stroke-linecap: round"/>
   </g>
   <g id="patch_4">
    <path d="M 150.795 28.7325 
Q 160.56 28.7325 168.01067 28.7325 
" style="fill: none; stroke: #009e73; stroke-width: 2.07; stroke-linecap: round"/>
    <path d="M 164.01067 26.7325 
L 168.01067 28.7325 
L 164.01067 30.7325 
z
" style="fill: #009e73; stroke: #009e73; stroke-width: 2.07; stroke-linecap: round"/>
   </g>
   <g id="patch_5">
    <path d="M 150.795 77.26455 
C 157.839006 77.26455 164.595457 74.465937 169.576322 69.485072 
C 174.557187 64.504207 177.3558 57.747756 177.3558 50.70375 
C 177.3558 43.659744 174.557187 36.903293 169.576322 31.922428 
C 164.595457 26.941563 157.839006 24.14295 150.795 24.14295 
C 143.750994 24.14295 136.994543 26.941563 132.013678 31.922428 
C 127.032813 36.903293 124.2342 43.659744 124.2342 50.70375 
C 124.2342 57.747756 127.032813 64.504207 132.013678 69.485072 
C 136.994543 74.465937 143.750994 77.26455 150.795 77.26455 
z
" clip-path="url(#pc5a97c4879)" style="fill: #56b4e9; opacity: 0.08"/>
   </g>
   <g id="patch_6">
    <path d="M 150.795 70.62435 
C 156.078005 70.62435 161.145343 68.52539 164.880991 64.789741 
C 168.61664 61.054093 170.7156 55.986755 170.7156 50.70375 
C 170.7156 45.420745 168.61664 40.353407 164.880991 36.617759 
C 161.145343 32.88211 156.078005 30.78315 150.795 30.78315 
C 145.511995 30.78315 140.444657 32.88211 136.709009 36.617759 
C 132.97336 40.353407 130.8744 45.420745 130.8744 50.70375 
C 130.8744 55.986755 132.97336 61.054093 136.709009 64.789741 
C 140.444657 68.52539 145.511995 70.62435 150.795 70.62435 
z
" clip-path="url(#pc5a97c4879)" style="fill: #56b4e9; opacity: 0.12"/>
   </g>
   <g id="patch_7">
    <path d="M 150.795 64.814175 
C 154.537128 64.814175 158.126493 63.327412 160.772577 60.681327 
C 163.418662 58.035243 164.905425 54.445878 164.905425 50.70375 
C 164.905425 46.961622 163.418662 43.372257 160.772577 40.726173 
C 158.126493 38.080088 154.537128 36.593325 150.795 36.593325 
C 147.052872 36.593325 143.463507 38.080088 140.817423 40.726173 
C 138.171338 43.372257 136.684575 46.961622 136.684575 50.70375 
C 136.684575 54.445878 138.171338 58.035243 140.817423 60.681327 
C 143.463507 63.327412 147.052872 64.814175 150.795 64.814175 
z
" clip-path="url(#pc5a97c4879)" style="fill: #56b4e9; opacity: 0.18"/>
   </g>
   <g id="patch_8">
    <path d="M 150.795 59.004 
C 152.996252 59.004 155.107643 58.129433 156.664163 56.572913 
C 158.220683 55.016393 159.09525 52.905002 159.09525 50.70375 
C 159.09525 48.502498 158.220683 46.391107 156.664163 44.834587 
C 155.107643 43.278067 152.996252 42.4035 150.795 42.4035 
C 148.593748 42.4035 146.482357 43.278067 144.925837 44.834587 
C 143.369317 46.391107 142.49475 48.502498 142.49475 50.70375 
C 142.49475 52.905002 143.369317 55.016393 144.925837 56.572913 
C 146.482357 58.129433 148.593748 59.004 150.795 59.004 
z
" clip-path="url(#pc5a97c4879)" style="fill: #56b4e9; stroke: #56b4e9; stroke-linejoin: miter"/>
   </g>
   <g id="patch_9">
    <path d="M 148.304925 51.118763 
C 149.075363 51.118763 149.81435 50.812664 150.359132 50.267882 
C 150.903914 49.7231 151.210013 48.984113 151.210013 48.213675 
C 151.210013 47.443237 150.903914 46.70425 150.359132 46.159468 
C 149.81435 45.614686 149.075363 45.308588 148.304925 45.308588 
C 147.534487 45.308588 146.7955 45.614686 146.250718 46.159468 
C 145.705936 46.70425 145.399837 47.443237 145.399837 48.213675 
C 145.399837 48.984113 145.705936 49.7231 146.250718 50.267882 
C 146.7955 50.812664 147.534487 51.118763 148.304925 51.118763 
z
" clip-path="url(#pc5a97c4879)" style="fill: #ffffff; opacity: 0.35"/>
   </g>
   <g id="text_4">
    <!-- − -->
    <g transform="translate(145.767188 53.820937) scale(0.12 -0.12)">
     <defs>
      <path id="DejaVuSans-Bold-c9c" d="M 678 2375 
L 4684 2375 
L 4684 1638 
L 678 1638 
L 678 2375 
z
" transform="scale(0.015625)"/>
     </defs>
     <use xlink:href="#DejaVuSans-Bold-c9c"/>
    </g>
   </g>
  </g>
 </g>
 <defs>
  <clipPath id="pc5a97c4879">
   <rect x="4.32" y="4.32" width="234.36" height="90.32625"/>
  </clipPath>
 </defs>
</svg>
