<?xml version="1.0" encoding="utf-8" standalone="no"?>
<!DOCTYPE svg PUBLIC "-//W3C//DTD SVG 1.1//EN"
  "http://www.w3.org/Graphics/SVG/1.1/DTD/svg11.dtd">
<svg xmlns:xlink="http://www.w3.org/1999/xlink" width="276.48pt" height="125.064pt" viewBox="0 0 276.48 125.064" xmlns="http://www.w3.org/2000/svg" version="1.1">
<style>
  svg { --ink: #111827; --muted: #475569; --tagtext: #ffffff; }
  @media (prefers-color-scheme: dark) { svg { --ink: #f3f4f6; --muted: #aab2bd; --tagtext: #111827; } }
</style>

 <metadata>
  <rdf:RDF xmlns:dc="http://purl.org/dc/elements/1.1/" xmlns:cc="http://creativecommons.org/ns#" xmlns:rdf="http://www.w3.org/1999/02/22-rdf-syntax-ns#">
   <cc:Work>
    <dc:type rdf:resource="http://purl.org/dc/dcmitype/StillImage"/>
    <dc:date>2026-09-22T14:03:25.661186</dc:date>
    <dc:format>image/svg+xml</dc:format>
    <dc:creator>
     <cc:Agent>
      <dc:title>Matplotlib v3.11.1, https://matplotlib.org/</dc:title>
     </cc:Agent>
    </dc:creator>
   </cc:Work>
  </rdf:RDF>
 </metadata>
 <defs>
  <style type="text/css">*{stroke-linejoin: round; stroke-linecap: butt}</style>
 </defs>
 <g id="figure_1">
  <g id="patch_1">
   <path d="M 0 125.064 
L 276.48 125.064 
L 276.48 0 
L 0 0 
L 0 125.064 
z
" style="fill: none"/>
  </g>
  <g id="axes_1">
   <g id="line2d_1">
    <path d="M 4.32 57.872602 
L 29.126208 57.784856 
L 37.841902 57.681248 
L 41.864531 57.878198 
L 45.887159 58.303973 
L 51.585882 58.933438 
L 53.932416 58.961324 
L 55.94373 58.768161 
L 57.955044 58.330165 
L 59.966358 57.639585 
L 62.312891 56.570178 
L 67.005957 54.298143 
L 68.682053 53.787759 
L 70.022929 53.627503 
L 71.028586 53.690091 
L 72.034243 53.931944 
L 73.0399 54.367975 
L 74.045557 55.006643 
L 75.386433 56.173509 
L 76.727309 57.678371 
L 78.403404 59.951163 
L 84.102128 68.165135 
L 85.107785 69.115929 
L 86.113442 69.744222 
L 86.78388 69.953847 
L 87.454318 69.977614 
L 88.124756 69.802259 
L 88.795194 69.417241 
L 89.465632 68.815125 
L 90.471289 67.497165 
L 91.476946 65.685141 
L 92.482603 63.402091 
L 93.823479 59.705281 
L 95.499574 54.277911 
L 99.857422 39.466643 
L 101.198298 35.942375 
L 102.203955 33.974301 
L 102.874393 33.051201 
L 103.544831 32.475433 
L 104.215269 32.272839 
L 104.885707 32.463914 
L 105.556145 33.063202 
L 106.226583 34.078774 
L 106.897021 35.51181 
L 107.902678 38.428936 
L 108.908335 42.218621 
L 110.249212 48.470238 
L 111.925307 57.759699 
L 116.618373 85.240783 
L 117.959249 91.249066 
L 118.964906 94.648949 
L 119.635344 96.295556 
L 120.305782 97.399439 
L 120.97622 97.929737 
L 121.311439 97.972595 
L 121.646658 97.8646 
L 121.981877 97.604524 
L 122.652315 96.626368 
L 123.322753 95.040996 
L 123.993191 92.86159 
L 124.998849 88.532745 
L 126.004506 83.043597 
L 127.345382 74.216808 
L 129.021477 61.497697 
L 132.708886 32.759591 
L 134.049762 24.129046 
L 135.055419 18.884924 
L 136.061076 14.913521 
L 136.731514 13.048033 
L 137.401952 11.845899 
L 137.737171 11.500276 
L 138.07239 11.327103 
L 138.40761 11.327103 
L 138.742829 11.500276 
L 139.078048 11.845899 
L 139.748486 13.048033 
L 140.418924 14.913521 
L 141.089362 17.411392 
L 142.095019 22.250703 
L 143.100676 28.237975 
L 144.441552 37.620014 
L 146.788085 56.129979 
L 149.134618 74.216808 
L 150.475494 83.043597 
L 151.481151 88.532745 
L 152.486809 92.86159 
L 153.157247 95.040996 
L 153.827685 96.626368 
L 154.498123 97.604524 
L 154.833342 97.8646 
L 155.168561 97.972595 
L 155.50378 97.929737 
L 155.838999 97.73787 
L 156.509437 96.91747 
L 157.179875 95.537832 
L 157.850313 93.634051 
L 158.85597 89.89146 
L 159.861627 85.240783 
L 161.202503 77.975575 
L 164.219474 59.751574 
L 165.895569 50.216438 
L 167.236446 43.661464 
L 168.242103 39.598836 
L 169.24776 36.383284 
L 169.918198 34.743314 
L 170.588636 33.518713 
L 171.259074 32.711869 
L 171.929512 32.318112 
L 172.59995 32.326075 
L 173.270388 32.718168 
L 173.940826 33.47114 
L 174.611264 34.55673 
L 175.616921 36.73655 
L 176.622578 39.466643 
L 177.963454 43.726899 
L 183.326959 61.639447 
L 184.667835 64.97471 
L 185.673492 66.94735 
L 186.679149 68.431263 
L 187.684806 69.417241 
L 188.355244 69.802259 
L 189.025682 69.977614 
L 189.69612 69.953847 
L 190.366558 69.744222 
L 191.372215 69.115929 
L 192.377872 68.165135 
L 193.718748 66.511194 
L 195.730063 63.537791 
L 198.747034 58.99817 
L 200.423129 56.886267 
L 201.764005 55.545728 
L 203.104881 54.558142 
L 204.110538 54.055149 
L 205.116195 53.749935 
L 206.121852 53.629593 
L 207.462728 53.724166 
L 208.803605 54.059451 
L 210.4797 54.7225 
L 213.496671 56.231225 
L 216.178423 57.501905 
L 218.189737 58.232192 
L 220.201051 58.712869 
L 222.212365 58.944689 
L 224.558899 58.950915 
L 227.57587 58.68531 
L 235.956345 57.785757 
L 239.978974 57.66427 
L 246.012916 57.752557 
L 256.739925 57.904566 
L 272.16 57.872602 
L 272.16 57.872602 
" clip-path="url(#p4f315da09b)" style="fill: none; stroke: #56b4e9; stroke-width: 1.8; stroke-linecap: square"/>
   </g>
   <g id="line2d_2">
    <path d="M 4.32 57.869293 
L 30.467084 57.738035 
L 40.858874 57.47568 
L 48.233692 57.076043 
L 53.932416 56.559697 
L 58.960701 55.887538 
L 63.318548 55.090462 
L 67.341176 54.137392 
L 71.028586 53.04903 
L 74.715995 51.728207 
L 78.403404 50.152005 
L 81.755594 48.482801 
L 85.107785 46.580923 
L 88.795194 44.220205 
L 92.482603 41.589806 
L 96.505232 38.443936 
L 101.198298 34.482876 
L 109.578773 27.038003 
L 115.277497 22.132277 
L 118.964906 19.226632 
L 122.317096 16.869137 
L 125.334068 15.039738 
L 128.01582 13.685401 
L 130.362353 12.733355 
L 132.708886 12.014936 
L 135.055419 11.541844 
L 137.401952 11.32185 
L 139.748486 11.358588 
L 142.095019 11.65145 
L 144.441552 12.195605 
L 146.788085 12.982134 
L 149.134618 13.998267 
L 151.81637 15.419695 
L 154.498123 17.090524 
L 157.515094 19.226632 
L 161.202503 22.132277 
L 165.895569 26.14901 
L 180.309987 38.715948 
L 184.332616 41.839497 
L 188.020025 44.446236 
L 191.707434 46.781648 
L 195.394844 48.835116 
L 198.747034 50.458455 
L 202.434443 51.986741 
L 206.121852 53.263467 
L 209.809262 54.31232 
L 213.83189 55.22796 
L 218.189737 55.991209 
L 223.218023 56.632519 
L 228.916746 57.123167 
L 235.956345 57.488575 
L 245.007259 57.722369 
L 259.421677 57.845686 
L 272.16 57.869293 
L 272.16 57.869293 
" clip-path="url(#p4f315da09b)" style="fill: none; stroke-dasharray: 5.18,2.24; stroke-dashoffset: 0; stroke: #e69f00; stroke-width: 1.4"/>
   </g>
   <g id="line2d_3">
    <path d="M 4.32 57.880787 
L 30.467084 58.012045 
L 40.858874 58.2744 
L 48.233692 58.674037 
L 53.932416 59.190383 
L 58.960701 59.862542 
L 63.318548 60.659618 
L 67.341176 61.612688 
L 71.028586 62.70105 
L 74.715995 64.021873 
L 78.403404 65.598075 
L 81.755594 67.267279 
L 85.107785 69.169157 
L 88.795194 71.529875 
L 92.482603 74.160274 
L 96.505232 77.306144 
L 101.198298 81.267204 
L 109.578773 88.712077 
L 115.277497 93.617803 
L 118.964906 96.523448 
L 122.317096 98.880943 
L 125.334068 100.710342 
L 128.01582 102.064679 
L 130.362353 103.016725 
L 132.708886 103.735144 
L 135.055419 104.208236 
L 137.401952 104.42823 
L 139.748486 104.391492 
L 142.095019 104.09863 
L 144.441552 103.554475 
L 146.788085 102.767946 
L 149.134618 101.751813 
L 151.81637 100.330385 
L 154.498123 98.659556 
L 157.515094 96.523448 
L 161.202503 93.617803 
L 165.895569 89.60107 
L 180.309987 77.034132 
L 184.332616 73.910583 
L 188.020025 71.303844 
L 191.707434 68.968432 
L 195.394844 66.914964 
L 198.747034 65.291625 
L 202.434443 63.763339 
L 206.121852 62.486613 
L 209.809262 61.43776 
L 213.83189 60.52212 
L 218.189737 59.758871 
L 223.218023 59.117561 
L 228.916746 58.626913 
L 235.956345 58.261505 
L 245.007259 58.027711 
L 259.421677 57.904394 
L 272.16 57.880787 
L 272.16 57.880787 
" clip-path="url(#p4f315da09b)" style="fill: none; stroke-dasharray: 5.18,2.24; stroke-dashoffset: 0; stroke: #e69f00; stroke-width: 1.4"/>
   </g>
   <g id="patch_2">
    <path d="M 216.130588 22.94784 
Q 229.75191 22.94784 241.584378 22.94784 
" style="fill: none; stroke: #e69f00; stroke-width: 1.6; stroke-linecap: round"/>
    <path d="M 237.184378 20.74784 
L 241.584378 22.94784 
L 237.184378 25.14784 
" style="fill: none; stroke: #e69f00; stroke-width: 1.6; stroke-linecap: round"/>
   </g>
   <g id="text_1">
    <!-- $v_g$ (envelope) -->
    <g style="fill: #e69f00" transform="translate(200.187 18.29088) scale(0.09 -0.09)">
     <defs>
      <path id="Cmmi10-38" d="M 684 722 
Q 684 866 718 1037 
Q 753 1209 787 1320 
Q 822 1431 944 1753 
Q 1066 2075 1069 2088 
Q 1153 2322 1153 2472 
Q 1153 2663 1013 2663 
Q 759 2663 595 2402 
Q 431 2141 353 1819 
Q 341 1778 300 1778 
L 225 1778 
Q 172 1778 172 1838 
L 172 1856 
Q 275 2238 487 2533 
Q 700 2828 1025 2828 
Q 1253 2828 1411 2678 
Q 1569 2528 1569 2297 
Q 1569 2178 1516 2047 
Q 1391 1722 1319 1526 
Q 1247 1331 1186 1089 
Q 1125 847 1125 641 
Q 1125 400 1236 248 
Q 1347 97 1581 97 
Q 2025 97 2381 781 
Q 2494 1003 2594 1303 
Q 2694 1603 2694 1791 
Q 2694 1984 2631 2092 
Q 2569 2200 2469 2317 
Q 2369 2434 2369 2503 
Q 2369 2628 2472 2731 
Q 2575 2834 2700 2834 
Q 2853 2834 2920 2693 
Q 2988 2553 2988 2375 
Q 2988 2163 2927 1869 
Q 2866 1575 2758 1259 
Q 2650 944 2559 763 
Q 2138 -72 1575 -72 
Q 1172 -72 928 129 
Q 684 331 684 722 
z
" transform="scale(0.015625)"/>
      <path id="Cmmi10-2f" d="M 91 -916 
Q 91 -759 198 -642 
Q 306 -525 459 -525 
Q 563 -525 633 -589 
Q 703 -653 703 -756 
Q 703 -872 637 -964 
Q 572 -1056 469 -1094 
Q 641 -1147 1006 -1147 
Q 1300 -1147 1544 -920 
Q 1788 -694 1863 -397 
L 2047 353 
Q 1700 0 1325 0 
Q 1050 0 854 140 
Q 659 281 556 515 
Q 453 750 453 1013 
Q 453 1306 573 1628 
Q 694 1950 911 2225 
Q 1128 2500 1409 2664 
Q 1691 2828 2003 2828 
Q 2191 2828 2341 2725 
Q 2491 2622 2578 2450 
Q 2641 2700 2853 2700 
Q 2934 2700 2990 2651 
Q 3047 2603 3047 2522 
Q 3047 2503 3045 2493 
Q 3044 2484 3041 2472 
L 2309 -434 
Q 2259 -634 2125 -800 
Q 1991 -966 1809 -1077 
Q 1628 -1188 1412 -1250 
Q 1197 -1313 997 -1313 
Q 631 -1313 361 -1242 
Q 91 -1172 91 -916 
z
M 1338 166 
Q 1747 166 2144 728 
L 2497 2125 
Q 2453 2347 2322 2505 
Q 2191 2663 1991 2663 
Q 1778 2663 1589 2489 
Q 1400 2316 1275 2075 
Q 1156 1844 1045 1411 
Q 934 978 934 728 
Q 934 509 1034 337 
Q 1134 166 1338 166 
z
" transform="scale(0.015625)"/>
      <path id="DejaVuSans-3" transform="scale(0.015625)"/>
      <path id="DejaVuSans-b" d="M 1984 4856 
Q 1566 4138 1362 3434 
Q 1159 2731 1159 2009 
Q 1159 1288 1364 580 
Q 1569 -128 1984 -844 
L 1484 -844 
Q 1016 -109 783 600 
Q 550 1309 550 2009 
Q 550 2706 781 3412 
Q 1013 4119 1484 4856 
L 1984 4856 
z
" transform="scale(0.015625)"/>
      <path id="DejaVuSans-48" d="M 3597 1894 
L 3597 1613 
L 953 1613 
Q 991 1019 1311 708 
Q 1631 397 2203 397 
Q 2534 397 2845 478 
Q 3156 559 3463 722 
L 3463 178 
Q 3153 47 2828 -22 
Q 2503 -91 2169 -91 
Q 1331 -91 842 396 
Q 353 884 353 1716 
Q 353 2575 817 3079 
Q 1281 3584 2069 3584 
Q 2775 3584 3186 3129 
Q 3597 2675 3597 1894 
z
M 3022 2063 
Q 3016 2534 2758 2815 
Q 2500 3097 2075 3097 
Q 1594 3097 1305 2825 
Q 1016 2553 972 2059 
L 3022 2063 
z
" transform="scale(0.015625)"/>
      <path id="DejaVuSans-51" d="M 3513 2113 
L 3513 0 
L 2938 0 
L 2938 2094 
Q 2938 2591 2744 2837 
Q 2550 3084 2163 3084 
Q 1697 3084 1428 2787 
Q 1159 2491 1159 1978 
L 1159 0 
L 581 0 
L 581 3500 
L 1159 3500 
L 1159 2956 
Q 1366 3272 1645 3428 
Q 1925 3584 2291 3584 
Q 2894 3584 3203 3211 
Q 3513 2838 3513 2113 
z
" transform="scale(0.015625)"/>
      <path id="DejaVuSans-59" d="M 191 3500 
L 800 3500 
L 1894 563 
L 2988 3500 
L 3597 3500 
L 2284 0 
L 1503 0 
L 191 3500 
z
" transform="scale(0.015625)"/>
      <path id="DejaVuSans-4f" d="M 603 4863 
L 1178 4863 
L 1178 0 
L 603 0 
L 603 4863 
z
" transform="scale(0.015625)"/>
      <path id="DejaVuSans-52" d="M 1959 3097 
Q 1497 3097 1228 2736 
Q 959 2375 959 1747 
Q 959 1119 1226 758 
Q 1494 397 1959 397 
Q 2419 397 2687 759 
Q 2956 1122 2956 1747 
Q 2956 2369 2687 2733 
Q 2419 3097 1959 3097 
z
M 1959 3584 
Q 2709 3584 3137 3096 
Q 3566 2609 3566 1747 
Q 3566 888 3137 398 
Q 2709 -91 1959 -91 
Q 1206 -91 779 398 
Q 353 888 353 1747 
Q 353 2609 779 3096 
Q 1206 3584 1959 3584 
z
" transform="scale(0.015625)"/>
      <path id="DejaVuSans-53" d="M 1159 525 
L 1159 -1331 
L 581 -1331 
L 581 3500 
L 1159 3500 
L 1159 2969 
Q 1341 3281 1617 3432 
Q 1894 3584 2278 3584 
Q 2916 3584 3314 3078 
Q 3713 2572 3713 1747 
Q 3713 922 3314 415 
Q 2916 -91 2278 -91 
Q 1894 -91 1617 61 
Q 1341 213 1159 525 
z
M 3116 1747 
Q 3116 2381 2855 2742 
Q 2594 3103 2138 3103 
Q 1681 3103 1420 2742 
Q 1159 2381 1159 1747 
Q 1159 1113 1420 752 
Q 1681 391 2138 391 
Q 2594 391 2855 752 
Q 3116 1113 3116 1747 
z
" transform="scale(0.015625)"/>
      <path id="DejaVuSans-c" d="M 513 4856 
L 1013 4856 
Q 1481 4119 1714 3412 
Q 1947 2706 1947 2009 
Q 1947 1309 1714 600 
Q 1481 -109 1013 -844 
L 513 -844 
Q 928 -128 1133 580 
Q 1338 1288 1338 2009 
Q 1338 2731 1133 3434 
Q 928 4138 513 4856 
z
" transform="scale(0.015625)"/>
     </defs>
     <use xlink:href="#Cmmi10-38" transform="translate(0 0.015625)"/>
     <use xlink:href="#Cmmi10-2f" transform="translate(48.388672 -14.984337) scale(0.7)"/>
     <use xlink:href="#DejaVuSans-3" transform="translate(87.502642 0.015625)"/>
     <use xlink:href="#DejaVuSans-b" transform="translate(119.289751 0.015625)"/>
     <use xlink:href="#DejaVuSans-48" transform="translate(158.303423 0.015625)"/>
     <use xlink:href="#DejaVuSans-51" transform="translate(219.826861 0.015625)"/>
     <use xlink:href="#DejaVuSans-59" transform="translate(283.205767 0.015625)"/>
     <use xlink:href="#DejaVuSans-48" transform="translate(342.385455 0.015625)"/>
     <use xlink:href="#DejaVuSans-4f" transform="translate(403.908892 0.015625)"/>
     <use xlink:href="#DejaVuSans-52" transform="translate(431.692095 0.015625)"/>
     <use xlink:href="#DejaVuSans-53" transform="translate(492.873736 0.015625)"/>
     <use xlink:href="#DejaVuSans-48" transform="translate(556.350298 0.015625)"/>
     <use xlink:href="#DejaVuSans-c" transform="translate(617.873736 0.015625)"/>
    </g>
   </g>
   <g id="patch_3">
    <path d="M 140.237684 113.75856 
Q 151.630857 113.75856 161.235176 113.75856 
" style="fill: none; stroke: #56b4e9; stroke-width: 1.6; stroke-linecap: round"/>
    <path d="M 156.835176 111.55856 
L 161.235176 113.75856 
L 156.835176 115.95856 
" style="fill: none; stroke: #56b4e9; stroke-width: 1.6; stroke-linecap: round"/>
   </g>
   <g id="text_2">
    <!-- $v_p$ (ripples) -->
    <g style="fill: #56b4e9" transform="translate(127.467 106.4916) scale(0.09 -0.09)">
     <defs>
      <path id="Cmmi10-80" d="M -159 -1241 
Q -219 -1241 -219 -1159 
Q -197 -1019 -134 -1019 
Q 66 -1019 145 -983 
Q 225 -947 269 -800 
L 991 2081 
Q 1038 2200 1038 2388 
Q 1038 2663 850 2663 
Q 650 2663 553 2423 
Q 456 2184 366 1819 
Q 366 1778 313 1778 
L 238 1778 
Q 222 1778 203 1801 
Q 184 1825 184 1844 
Q 253 2122 317 2315 
Q 381 2509 517 2668 
Q 653 2828 856 2828 
Q 1075 2828 1240 2704 
Q 1406 2581 1453 2369 
Q 1628 2572 1840 2700 
Q 2053 2828 2278 2828 
Q 2547 2828 2745 2684 
Q 2944 2541 3044 2308 
Q 3144 2075 3144 1806 
Q 3144 1394 2933 953 
Q 2722 513 2361 220 
Q 2000 -72 1588 -72 
Q 1400 -72 1248 34 
Q 1097 141 1013 313 
L 722 -825 
Q 706 -919 703 -934 
Q 703 -1019 1125 -1019 
Q 1191 -1019 1191 -1100 
Q 1169 -1184 1155 -1212 
Q 1141 -1241 1081 -1241 
L -159 -1241 
z
M 1594 97 
Q 1816 97 2006 280 
Q 2197 463 2316 691 
Q 2403 863 2479 1111 
Q 2556 1359 2612 1640 
Q 2669 1922 2669 2088 
Q 2669 2234 2630 2362 
Q 2591 2491 2502 2577 
Q 2413 2663 2266 2663 
Q 2031 2663 1823 2495 
Q 1616 2328 1447 2081 
L 1447 2059 
L 1094 647 
Q 1138 419 1263 258 
Q 1388 97 1594 97 
z
" transform="scale(0.015625)"/>
      <path id="DejaVuSans-55" d="M 2631 2963 
Q 2534 3019 2420 3045 
Q 2306 3072 2169 3072 
Q 1681 3072 1420 2755 
Q 1159 2438 1159 1844 
L 1159 0 
L 581 0 
L 581 3500 
L 1159 3500 
L 1159 2956 
Q 1341 3275 1631 3429 
Q 1922 3584 2338 3584 
Q 2397 3584 2469 3576 
Q 2541 3569 2628 3553 
L 2631 2963 
z
" transform="scale(0.015625)"/>
      <path id="DejaVuSans-4c" d="M 603 3500 
L 1178 3500 
L 1178 0 
L 603 0 
L 603 3500 
z
M 603 4863 
L 1178 4863 
L 1178 4134 
L 603 4134 
L 603 4863 
z
" transform="scale(0.015625)"/>
      <path id="DejaVuSans-56" d="M 2834 3397 
L 2834 2853 
Q 2591 2978 2328 3040 
Q 2066 3103 1784 3103 
Q 1356 3103 1142 2972 
Q 928 2841 928 2578 
Q 928 2378 1081 2264 
Q 1234 2150 1697 2047 
L 1894 2003 
Q 2506 1872 2764 1633 
Q 3022 1394 3022 966 
Q 3022 478 2636 193 
Q 2250 -91 1575 -91 
Q 1294 -91 989 -36 
Q 684 19 347 128 
L 347 722 
Q 666 556 975 473 
Q 1284 391 1588 391 
Q 1994 391 2212 530 
Q 2431 669 2431 922 
Q 2431 1156 2273 1281 
Q 2116 1406 1581 1522 
L 1381 1569 
Q 847 1681 609 1914 
Q 372 2147 372 2553 
Q 372 3047 722 3315 
Q 1072 3584 1716 3584 
Q 2034 3584 2315 3537 
Q 2597 3491 2834 3397 
z
" transform="scale(0.015625)"/>
     </defs>
     <use xlink:href="#Cmmi10-38" transform="translate(0 0.015625)"/>
     <use xlink:href="#Cmmi10-80" transform="translate(48.388672 -14.984337) scale(0.7)"/>
     <use xlink:href="#DejaVuSans-3" transform="translate(89.314165 0.015625)"/>
     <use xlink:href="#DejaVuSans-b" transform="translate(121.101275 0.015625)"/>
     <use xlink:href="#DejaVuSans-55" transform="translate(160.114947 0.015625)"/>
     <use xlink:href="#DejaVuSans-4c" transform="translate(201.228228 0.015625)"/>
     <use xlink:href="#DejaVuSans-53" transform="translate(229.011431 0.015625)"/>
     <use xlink:href="#DejaVuSans-53" transform="translate(292.487994 0.015625)"/>
     <use xlink:href="#DejaVuSans-4f" transform="translate(355.964556 0.015625)"/>
     <use xlink:href="#DejaVuSans-48" transform="translate(383.747759 0.015625)"/>
     <use xlink:href="#DejaVuSans-56" transform="translate(445.271197 0.015625)"/>
     <use xlink:href="#DejaVuSans-c" transform="translate(497.370806 0.015625)"/>
    </g>
   </g>
  </g>
 </g>
 <defs>
  <clipPath id="p4f315da09b">
   <rect x="4.32" y="4.32" width="267.84" height="116.424"/>
  </clipPath>
 </defs>
</svg>
